<svg id="svg" xmlns="http://www.w3.org/2000/svg" xmlns:xlink="http://www.w3.org/1999/xlink" width="400" height="401.1331444759207" viewBox="0, 0, 400,401.1331444759207"><g id="svgg"><path id="path0" d="M175.944 51.000 L 150.278 76.800 114.372 76.800 C 94.623 76.800,78.181 76.909,77.833 77.043 C 77.262 77.262,77.200 80.869,77.200 113.756 L 77.200 150.226 51.700 175.958 C 37.675 190.111,26.146 202.007,26.079 202.393 C 25.974 203.004,45.957 223.484,72.200 249.658 L 77.000 254.445 77.087 291.076 C 77.135 311.223,77.285 327.818,77.420 327.954 C 77.556 328.089,94.045 328.248,114.064 328.306 L 150.461 328.412 175.903 354.006 C 189.896 368.083,201.627 379.600,201.972 379.601 C 202.317 379.601,214.131 367.991,228.224 353.801 L 253.848 328.000 290.081 328.000 C 322.752 328.000,326.338 327.938,326.557 327.367 C 326.691 327.019,326.803 310.594,326.806 290.867 C 326.810 270.331,326.966 254.757,327.172 254.432 C 327.370 254.119,338.583 242.779,352.090 229.232 C 365.597 215.684,377.026 204.056,377.487 203.391 L 378.326 202.181 352.563 176.288 L 326.800 150.395 326.800 114.077 C 326.800 86.364,326.686 77.646,326.320 77.280 C 325.954 76.914,317.293 76.800,289.780 76.800 L 253.719 76.800 228.160 51.009 C 214.102 36.824,202.377 25.214,202.106 25.209 C 201.834 25.204,190.061 36.810,175.944 51.000 M214.869 53.700 C 226.164 65.220,244.323 83.481,247.784 86.800 L 249.244 88.200 282.322 88.400 L 315.400 88.600 315.600 121.868 L 315.800 155.136 316.800 156.260 C 317.350 156.878,327.835 167.447,340.100 179.747 C 352.365 192.048,362.400 202.253,362.400 202.427 C 362.400 202.775,358.799 206.439,333.236 232.106 L 315.800 249.612 315.600 283.106 L 315.400 316.600 282.106 316.800 L 248.813 317.000 225.706 340.301 C 212.998 353.117,202.352 363.602,202.049 363.601 C 201.746 363.600,191.126 353.205,178.449 340.500 L 155.400 317.400 122.000 317.200 L 88.600 317.000 88.498 283.406 L 88.395 249.813 73.098 234.499 C 64.684 226.076,54.245 215.639,49.900 211.305 C 44.778 206.196,42.000 203.137,42.000 202.607 C 42.000 202.061,49.724 193.997,65.192 178.394 L 88.383 155.000 88.392 121.707 L 88.400 88.414 121.620 88.307 L 154.839 88.200 178.252 64.700 C 191.128 51.775,201.877 41.200,202.138 41.200 C 202.399 41.200,208.128 46.825,214.869 53.700 M182.785 75.028 C 172.123 85.697,162.500 95.319,161.400 96.409 L 159.400 98.390 129.874 98.395 C 110.295 98.398,100.087 98.540,99.574 98.814 C 98.820 99.218,98.800 99.989,98.781 129.314 L 98.762 159.400 77.604 180.769 C 61.132 197.406,56.521 202.279,56.785 202.769 C 56.971 203.116,64.116 210.450,72.662 219.067 C 81.208 227.684,90.585 237.148,93.500 240.100 L 98.800 245.466 98.800 275.490 C 98.800 302.499,98.864 305.539,99.433 305.757 C 99.781 305.891,113.328 306.000,129.537 306.000 L 159.009 306.000 180.005 327.018 C 191.552 338.578,201.345 348.231,201.766 348.468 C 202.443 348.849,204.982 346.426,223.794 327.449 L 245.056 306.000 274.904 306.000 C 291.819 306.000,304.848 305.846,304.972 305.645 C 305.092 305.451,305.197 292.039,305.205 275.843 C 305.215 256.169,305.359 246.090,305.639 245.474 C 305.870 244.967,311.941 238.681,319.129 231.504 C 326.318 224.328,335.788 214.832,340.173 210.402 L 348.145 202.349 332.323 186.474 C 323.620 177.743,313.957 168.015,310.850 164.856 L 305.200 159.112 305.200 129.236 C 305.200 106.532,305.085 99.245,304.720 98.880 C 304.355 98.515,297.119 98.400,274.595 98.400 L 244.950 98.400 224.328 77.700 C 212.986 66.315,203.360 56.692,202.938 56.315 C 202.196 55.653,201.505 56.294,182.785 75.028 M213.000 78.194 C 218.720 84.026,227.360 92.803,232.200 97.699 L 241.000 106.600 268.856 106.710 L 296.712 106.821 296.951 107.710 C 297.082 108.200,297.192 120.838,297.195 135.795 L 297.200 162.989 316.600 182.404 C 327.270 193.082,336.000 202.027,336.000 202.282 C 336.000 202.537,327.270 211.501,316.600 222.202 L 297.200 241.659 297.200 269.349 C 297.200 290.353,297.084 297.156,296.720 297.520 C 296.356 297.884,289.595 298.000,268.737 298.000 L 241.234 298.000 239.717 299.510 C 238.883 300.340,230.221 309.070,220.469 318.910 C 210.717 328.749,202.617 336.797,202.469 336.794 C 201.836 336.779,200.156 335.158,182.001 317.038 L 162.925 298.000 135.542 298.000 C 114.778 298.000,108.044 297.884,107.680 297.520 C 107.316 297.156,107.200 290.374,107.200 269.445 L 107.200 241.850 96.100 230.714 C 89.995 224.589,81.142 215.707,76.427 210.977 L 67.855 202.377 83.827 186.309 C 92.612 177.471,101.465 168.556,103.500 166.498 L 107.200 162.755 107.205 135.677 C 107.208 120.785,107.319 108.195,107.452 107.700 L 107.693 106.800 135.160 106.800 L 162.626 106.800 182.246 87.200 C 193.037 76.420,202.031 67.598,202.233 67.595 C 202.435 67.593,207.280 72.362,213.000 78.194 M184.271 99.800 L 166.844 117.200 142.702 117.200 C 124.458 117.200,118.443 117.317,118.080 117.680 C 117.717 118.043,117.600 124.093,117.600 142.461 L 117.600 166.761 110.500 173.907 C 89.280 195.265,82.800 201.925,82.800 202.374 C 82.800 202.927,83.690 203.843,103.518 223.708 L 117.400 237.616 117.600 262.508 L 117.800 287.400 142.413 287.503 L 167.026 287.606 184.413 305.011 C 193.976 314.584,202.016 322.368,202.279 322.308 C 202.884 322.171,205.285 319.812,222.911 302.034 L 237.222 287.600 261.531 287.600 C 279.905 287.600,285.957 287.483,286.320 287.120 C 286.683 286.757,286.800 280.673,286.800 262.187 L 286.800 237.733 303.900 220.420 C 313.305 210.898,321.151 202.845,321.335 202.525 C 321.586 202.091,317.267 197.541,304.235 184.514 L 286.800 167.084 286.800 142.622 C 286.800 124.129,286.683 118.043,286.320 117.680 C 285.957 117.317,279.910 117.200,261.555 117.200 L 237.271 117.200 223.935 103.709 C 203.189 82.722,202.862 82.400,202.263 82.400 C 201.952 82.400,193.855 90.230,184.271 99.800 M211.220 97.482 C 215.939 102.258,223.250 109.638,227.468 113.882 L 235.135 121.600 258.288 121.600 C 275.762 121.600,281.558 121.718,281.920 122.080 C 282.282 122.442,282.400 128.285,282.400 145.924 L 282.400 169.288 298.799 185.681 C 310.095 196.973,315.105 202.241,314.899 202.609 C 314.735 202.903,307.356 210.428,298.503 219.331 L 282.406 235.519 282.303 259.059 L 282.200 282.600 258.698 282.800 L 235.195 283.000 218.787 299.520 L 202.380 316.040 201.290 315.236 C 200.690 314.793,194.047 308.259,186.526 300.716 C 179.005 293.172,171.933 286.100,170.811 285.000 L 168.770 283.000 145.485 282.800 L 122.200 282.600 122.097 259.241 L 121.994 235.882 114.697 228.519 C 98.972 212.652,89.610 203.004,89.396 202.445 C 89.191 201.911,95.960 194.925,117.000 173.959 L 121.800 169.175 121.910 145.917 C 121.984 130.014,122.156 122.495,122.451 122.139 C 122.794 121.725,127.645 121.596,146.141 121.509 L 169.400 121.400 185.581 105.100 C 194.481 96.135,201.960 88.800,202.202 88.800 C 202.443 88.800,206.501 92.707,211.220 97.482 M186.400 154.392 C 185.850 154.573,184.410 155.021,183.200 155.388 C 176.893 157.300,172.055 162.893,170.735 169.800 C 169.975 173.775,169.959 219.268,170.717 222.200 C 171.879 226.700,177.279 234.400,179.272 234.400 C 179.528 234.400,180.021 234.633,180.369 234.917 C 183.095 237.150,194.419 238.269,200.934 236.949 C 205.723 235.978,208.051 234.787,210.961 231.818 C 214.969 227.728,216.149 225.085,216.801 218.734 C 217.377 213.125,217.117 172.238,216.490 169.800 C 213.761 159.188,205.942 153.987,192.800 154.041 C 189.830 154.053,186.950 154.211,186.400 154.392 M242.000 154.367 C 241.670 154.556,240.614 154.839,239.654 154.998 C 231.660 156.316,226.329 163.356,225.416 173.800 C 224.797 180.881,224.766 184.126,225.156 201.000 C 225.614 220.848,226.457 227.600,228.474 227.600 C 228.653 227.600,228.800 227.799,228.800 228.042 C 228.800 228.492,230.816 231.262,232.009 232.452 C 238.223 238.648,256.169 239.345,264.200 233.701 C 272.176 228.097,273.085 223.438,272.435 191.520 C 272.015 170.925,272.039 171.206,270.182 165.642 C 268.573 160.820,263.066 156.587,256.036 154.767 C 252.883 153.951,243.211 153.675,242.000 154.367 M147.588 157.826 C 143.023 162.457,135.150 166.856,130.293 167.489 C 127.962 167.793,127.600 168.644,127.600 173.813 C 127.600 179.503,127.545 179.437,132.566 179.766 C 137.230 180.071,138.847 180.720,140.446 182.928 L 141.600 184.520 141.600 209.780 C 141.600 228.893,141.717 235.157,142.080 235.520 C 142.701 236.141,160.078 236.201,161.226 235.586 C 162.315 235.003,162.457 156.914,161.371 155.829 C 160.863 155.321,159.729 155.200,155.460 155.200 L 150.177 155.200 147.588 157.826 M247.139 180.663 C 247.287 190.227,247.260 190.379,245.431 190.394 C 241.695 190.424,240.957 192.042,240.589 201.000 C 240.444 204.520,240.074 209.380,239.766 211.800 C 239.458 214.220,239.205 216.952,239.203 217.871 C 239.199 220.226,237.718 221.558,236.480 220.320 C 235.636 219.476,235.932 215.942,237.410 209.200 C 238.209 205.552,238.535 193.198,238.068 184.236 C 237.597 175.196,237.839 174.172,239.917 176.403 C 241.728 178.347,244.997 176.187,244.713 173.234 C 244.453 170.525,244.985 169.607,246.145 170.767 C 246.959 171.580,247.007 172.056,247.139 180.663 M251.920 170.480 C 252.184 170.744,252.403 171.689,252.406 172.580 C 252.414 174.587,252.738 175.119,254.228 175.566 C 254.873 175.759,255.703 176.040,256.074 176.191 C 256.575 176.395,257.012 176.048,257.772 174.845 C 259.596 171.954,259.989 172.831,259.717 179.188 C 259.578 182.436,259.680 186.745,259.964 189.655 C 260.364 193.750,261.103 208.716,261.342 217.553 C 261.453 221.687,259.094 221.207,258.620 217.000 C 258.496 215.900,258.251 209.807,258.074 203.459 L 257.753 191.919 256.777 191.168 C 256.116 190.661,255.130 190.415,253.729 190.409 C 250.301 190.394,249.797 188.749,249.803 177.600 C 249.807 170.919,250.392 168.952,251.920 170.480 M194.167 170.643 C 194.685 170.841,194.800 171.601,194.800 174.814 C 194.800 179.298,195.161 180.000,197.468 180.000 C 200.370 180.000,201.718 178.930,201.455 176.834 C 201.151 174.411,201.846 173.337,203.133 174.238 C 203.896 174.772,203.999 175.216,203.994 177.923 C 203.986 182.057,204.048 182.000,199.162 182.324 C 195.049 182.597,194.999 182.612,194.878 183.650 C 194.673 185.418,195.686 186.000,198.969 186.000 C 205.256 186.000,205.232 185.955,205.499 198.355 C 205.785 211.616,205.404 218.281,204.341 218.619 C 202.887 219.080,202.289 218.070,202.566 215.616 C 202.894 212.704,202.929 192.133,202.607 191.611 C 202.446 191.351,201.838 191.424,200.893 191.819 C 198.226 192.933,197.182 194.486,198.763 194.988 C 201.088 195.726,199.909 198.400,197.260 198.400 C 195.382 198.400,195.289 198.453,195.049 199.657 C 194.696 201.418,195.387 202.104,197.324 201.920 C 198.612 201.797,199.001 201.934,199.494 202.687 C 200.361 204.011,199.570 204.800,197.375 204.800 C 195.012 204.800,195.026 204.752,194.800 214.000 C 194.603 222.058,194.585 222.202,193.725 222.325 C 191.820 222.596,191.511 221.159,191.824 213.499 C 192.166 205.142,192.065 204.800,189.266 204.800 C 185.023 204.800,185.667 202.268,190.000 201.914 C 191.348 201.804,191.400 201.740,191.400 200.200 L 191.400 198.600 189.600 198.495 C 185.618 198.261,184.549 196.821,187.600 195.798 C 189.514 195.156,189.405 194.150,187.242 192.500 C 183.833 189.899,183.798 189.983,183.812 200.800 C 183.819 205.970,184.035 211.983,184.293 214.162 C 184.772 218.211,184.602 219.283,183.412 219.740 C 183.028 219.887,182.549 219.588,182.119 218.932 C 181.375 217.796,180.781 194.214,181.377 189.446 C 181.698 186.880,181.466 187.005,186.998 186.407 C 191.546 185.915,192.380 185.443,191.771 183.706 C 191.389 182.619,191.321 182.598,187.697 182.485 C 183.245 182.346,183.175 182.267,183.485 177.749 C 183.815 172.937,186.000 171.746,186.000 176.378 C 186.000 179.057,186.869 180.000,189.337 180.000 C 191.389 180.000,191.796 179.211,191.828 175.167 C 191.860 170.981,192.388 169.960,194.167 170.643 M252.000 179.360 C 252.000 181.160,256.131 183.456,256.929 182.100 C 258.313 179.750,256.786 178.000,253.351 178.000 C 252.081 178.000,252.000 178.082,252.000 179.360 M242.800 178.691 C 240.050 179.191,239.298 182.400,241.930 182.400 C 244.273 182.400,246.027 180.187,244.720 178.880 C 244.456 178.616,244.141 178.425,244.020 178.454 C 243.899 178.484,243.350 178.591,242.800 178.691 M252.381 184.436 C 251.455 186.165,253.621 188.800,255.966 188.800 C 257.012 188.800,257.719 187.450,257.409 186.042 C 256.969 184.038,253.232 182.845,252.381 184.436 M242.560 184.571 C 240.048 185.665,240.154 189.200,242.698 189.200 C 244.754 189.200,246.478 185.838,245.120 184.480 C 244.520 183.880,244.115 183.894,242.560 184.571 M188.700 189.091 C 187.049 189.264,186.733 189.798,188.038 190.212 C 188.499 190.358,189.777 191.360,190.878 192.439 C 193.244 194.756,193.560 194.806,195.060 193.100 C 195.688 192.385,197.151 191.351,198.310 190.801 C 201.933 189.085,197.057 188.217,188.700 189.091 M254.500 193.146 C 254.947 193.227,254.863 195.114,254.400 195.400 C 253.787 195.779,253.925 197.840,254.600 198.400 C 255.396 199.061,255.364 200.252,254.540 200.567 C 253.873 200.824,253.946 213.122,254.650 219.061 C 254.953 221.619,253.864 222.664,252.409 221.209 C 251.644 220.444,251.600 219.897,251.594 211.100 C 251.588 201.440,251.556 201.213,250.136 200.465 C 249.189 199.967,249.262 198.400,250.233 198.400 C 251.902 198.400,251.666 195.692,249.915 194.754 L 249.048 194.290 249.876 193.620 C 250.579 193.051,252.745 192.829,254.500 193.146 M248.130 193.761 C 248.406 194.481,248.015 196.000,247.553 196.000 C 247.051 196.000,247.116 197.379,247.678 198.611 C 248.048 199.423,248.048 199.831,247.678 200.424 C 247.378 200.904,247.194 203.015,247.183 206.095 C 247.173 208.793,246.983 211.810,246.760 212.800 C 246.537 213.790,246.188 215.500,245.984 216.600 C 244.995 221.953,244.599 222.993,243.506 223.123 C 242.089 223.292,241.886 222.388,242.626 219.200 C 242.958 217.770,243.389 215.765,243.583 214.745 C 243.778 213.725,244.131 212.195,244.367 211.345 C 245.259 208.131,244.930 201.630,243.855 201.221 C 242.368 200.655,242.279 199.741,243.618 198.787 C 245.063 197.758,245.128 196.707,243.800 195.837 C 243.250 195.476,242.800 194.921,242.800 194.602 C 242.800 193.479,247.724 192.703,248.130 193.761 M118.400 197.279 C 113.951 200.291,117.515 207.371,122.514 205.450 C 125.727 204.216,126.563 200.841,124.300 198.238 C 122.567 196.246,120.438 195.899,118.400 197.279 M283.937 197.010 C 281.495 198.336,280.670 201.056,282.018 203.340 C 285.138 208.629,292.693 204.563,290.017 199.035 C 288.800 196.521,286.343 195.703,283.937 197.010 M137.900 243.475 C 137.476 243.586,137.200 244.041,137.200 244.629 L 137.200 245.600 203.613 245.600 C 275.077 245.600,272.431 245.674,269.793 243.745 C 269.077 243.222,139.879 242.957,137.900 243.475 M139.467 253.067 C 139.013 253.521,139.172 255.054,139.798 256.254 C 140.200 257.027,140.396 258.597,140.398 261.076 C 140.400 264.973,140.613 265.434,142.223 265.030 C 143.349 264.747,143.789 254.349,142.720 253.280 C 142.210 252.770,139.914 252.619,139.467 253.067 M150.831 253.836 C 149.775 254.724,149.602 255.136,149.613 256.736 C 149.635 259.829,150.496 260.487,154.886 260.767 L 158.534 261.000 156.841 262.760 C 155.064 264.607,155.134 265.181,157.138 265.194 C 161.638 265.223,164.674 255.403,160.787 253.393 C 158.664 252.296,152.326 252.577,150.831 253.836 M169.174 253.648 C 168.803 254.342,168.873 254.702,169.560 255.632 C 170.282 256.608,170.400 257.332,170.400 260.776 C 170.400 265.040,171.208 266.287,173.005 264.796 C 173.623 264.283,173.888 255.714,173.348 253.700 C 173.004 252.416,169.855 252.376,169.174 253.648 M181.300 253.596 C 180.068 254.347,180.000 254.513,180.000 256.766 C 180.000 260.235,180.656 260.672,186.200 260.901 L 188.600 261.000 186.892 262.854 C 185.510 264.353,185.306 264.755,185.824 264.954 C 189.777 266.471,193.974 260.218,192.555 254.927 C 191.980 252.782,184.153 251.856,181.300 253.596 M212.400 253.362 C 210.690 253.974,209.309 256.918,210.406 257.612 C 211.510 258.310,212.800 258.051,213.179 257.055 C 213.992 254.916,220.000 255.037,220.000 257.191 C 220.000 258.178,218.916 258.913,215.212 260.440 C 208.482 263.213,208.779 264.961,216.005 265.115 C 222.451 265.253,223.300 265.106,223.126 263.886 C 223.014 263.099,222.698 262.974,220.301 262.768 C 216.785 262.466,216.700 262.285,219.568 261.212 C 224.039 259.540,224.678 254.981,220.681 253.277 C 219.241 252.663,214.209 252.714,212.400 253.362 M229.104 253.351 C 226.531 254.491,225.651 261.419,227.765 263.878 C 228.798 265.079,233.580 265.668,237.034 265.020 C 240.857 264.303,241.373 254.919,237.675 253.373 C 236.007 252.677,230.656 252.663,229.104 253.351 M245.067 253.067 C 244.624 253.510,244.767 255.407,245.283 255.923 C 245.591 256.231,245.772 257.813,245.783 260.303 C 245.804 265.056,246.382 266.087,248.334 264.849 C 249.016 264.417,249.023 254.151,248.343 253.331 C 247.888 252.783,245.539 252.594,245.067 253.067 M257.000 253.283 C 255.664 254.050,255.226 254.916,255.222 256.800 C 255.215 259.871,256.017 260.483,260.420 260.763 L 264.140 261.000 262.414 262.741 C 261.064 264.103,260.809 264.560,261.243 264.835 C 265.719 267.670,270.857 256.914,266.653 253.509 C 265.631 252.681,258.347 252.511,257.000 253.283 M158.826 256.014 C 160.914 257.131,158.721 258.579,155.487 258.219 C 152.919 257.933,151.946 256.987,153.067 255.867 C 153.490 255.443,157.973 255.558,158.826 256.014 M189.074 256.034 C 190.106 257.066,189.187 257.898,186.704 258.179 C 183.892 258.497,182.114 257.509,183.182 256.222 C 183.793 255.486,188.379 255.339,189.074 256.034 M236.026 256.014 C 237.241 256.664,237.155 261.306,235.911 262.177 C 233.051 264.180,230.000 262.539,230.000 258.997 C 230.000 256.984,230.149 256.353,230.700 256.032 C 231.617 255.498,235.040 255.486,236.026 256.014 M264.545 256.111 C 266.238 257.348,264.390 258.449,261.077 258.177 C 258.553 257.970,257.537 256.996,258.667 255.867 C 259.143 255.390,263.826 255.584,264.545 256.111 M197.751 258.584 C 197.159 260.125,197.832 260.436,201.493 260.316 C 204.936 260.202,205.000 260.182,205.000 259.200 C 205.000 257.944,198.217 257.368,197.751 258.584 " stroke="none" fill="#6d255c" fill-rule="evenodd"></path><path id="path1" d="M0.000 200.400 L 0.000 400.800 200.000 400.800 L 400.000 400.800 400.000 200.400 L 400.000 0.000 200.000 0.000 L 0.000 0.000 0.000 200.400 M228.160 51.009 L 253.719 76.800 289.780 76.800 C 317.293 76.800,325.954 76.914,326.320 77.280 C 326.686 77.646,326.800 86.364,326.800 114.077 L 326.800 150.395 352.563 176.288 L 378.326 202.181 377.487 203.391 C 377.026 204.056,365.597 215.684,352.090 229.232 C 338.583 242.779,327.370 254.119,327.172 254.432 C 326.966 254.757,326.810 270.331,326.806 290.867 C 326.803 310.594,326.691 327.019,326.557 327.367 C 326.338 327.938,322.752 328.000,290.081 328.000 L 253.848 328.000 228.224 353.801 C 214.131 367.991,202.317 379.601,201.972 379.601 C 201.627 379.600,189.896 368.083,175.903 354.006 L 150.461 328.412 114.064 328.306 C 94.045 328.248,77.556 328.089,77.420 327.954 C 77.285 327.818,77.135 311.223,77.087 291.076 L 77.000 254.445 72.200 249.658 C 45.957 223.484,25.974 203.004,26.079 202.393 C 26.146 202.007,37.675 190.111,51.700 175.958 L 77.200 150.226 77.200 113.756 C 77.200 80.869,77.262 77.262,77.833 77.043 C 78.181 76.909,94.623 76.800,114.372 76.800 L 150.278 76.800 175.944 51.000 C 190.061 36.810,201.834 25.204,202.106 25.209 C 202.377 25.214,214.102 36.824,228.160 51.009 M178.252 64.700 L 154.839 88.200 121.620 88.307 L 88.400 88.414 88.392 121.707 L 88.383 155.000 65.192 178.394 C 49.724 193.997,42.000 202.061,42.000 202.607 C 42.000 203.137,44.778 206.196,49.900 211.305 C 54.245 215.639,64.684 226.076,73.098 234.499 L 88.395 249.813 88.498 283.406 L 88.600 317.000 122.000 317.200 L 155.400 317.400 178.449 340.500 C 191.126 353.205,201.746 363.600,202.049 363.601 C 202.352 363.602,212.998 353.117,225.706 340.301 L 248.813 317.000 282.106 316.800 L 315.400 316.600 315.600 283.106 L 315.800 249.612 333.236 232.106 C 358.799 206.439,362.400 202.775,362.400 202.427 C 362.400 202.253,352.365 192.048,340.100 179.747 C 327.835 167.447,317.350 156.878,316.800 156.260 L 315.800 155.136 315.600 121.868 L 315.400 88.600 282.322 88.400 L 249.244 88.200 247.784 86.800 C 244.323 83.481,226.164 65.220,214.869 53.700 C 208.128 46.825,202.399 41.200,202.138 41.200 C 201.877 41.200,191.128 51.775,178.252 64.700 M224.328 77.700 L 244.950 98.400 274.595 98.400 C 297.119 98.400,304.355 98.515,304.720 98.880 C 305.085 99.245,305.200 106.532,305.200 129.236 L 305.200 159.112 310.850 164.856 C 313.957 168.015,323.620 177.743,332.323 186.474 L 348.145 202.349 340.173 210.402 C 335.788 214.832,326.318 224.328,319.129 231.504 C 311.941 238.681,305.870 244.967,305.639 245.474 C 305.359 246.090,305.215 256.169,305.205 275.843 C 305.197 292.039,305.092 305.451,304.972 305.645 C 304.848 305.846,291.819 306.000,274.904 306.000 L 245.056 306.000 223.794 327.449 C 204.982 346.426,202.443 348.849,201.766 348.468 C 201.345 348.231,191.552 338.578,180.005 327.018 L 159.009 306.000 129.537 306.000 C 113.328 306.000,99.781 305.891,99.433 305.757 C 98.864 305.539,98.800 302.499,98.800 275.490 L 98.800 245.466 93.500 240.100 C 90.585 237.148,81.208 227.684,72.662 219.067 C 64.116 210.450,56.971 203.116,56.785 202.769 C 56.521 202.279,61.132 197.406,77.604 180.769 L 98.762 159.400 98.781 129.314 C 98.800 99.989,98.820 99.218,99.574 98.814 C 100.087 98.540,110.295 98.398,129.874 98.395 L 159.400 98.390 161.400 96.409 C 162.500 95.319,172.123 85.697,182.785 75.028 C 201.505 56.294,202.196 55.653,202.938 56.315 C 203.360 56.692,212.986 66.315,224.328 77.700 M182.246 87.200 L 162.626 106.800 135.160 106.800 L 107.693 106.800 107.452 107.700 C 107.319 108.195,107.208 120.785,107.205 135.677 L 107.200 162.755 103.500 166.498 C 101.465 168.556,92.612 177.471,83.827 186.309 L 67.855 202.377 76.427 210.977 C 81.142 215.707,89.995 224.589,96.100 230.714 L 107.200 241.850 107.200 269.445 C 107.200 290.374,107.316 297.156,107.680 297.520 C 108.044 297.884,114.778 298.000,135.542 298.000 L 162.925 298.000 182.001 317.038 C 200.156 335.158,201.836 336.779,202.469 336.794 C 202.617 336.797,210.717 328.749,220.469 318.910 C 230.221 309.070,238.883 300.340,239.717 299.510 L 241.234 298.000 268.737 298.000 C 289.595 298.000,296.356 297.884,296.720 297.520 C 297.084 297.156,297.200 290.353,297.200 269.349 L 297.200 241.659 316.600 222.202 C 327.270 211.501,336.000 202.537,336.000 202.282 C 336.000 202.027,327.270 193.082,316.600 182.404 L 297.200 162.989 297.195 135.795 C 297.192 120.838,297.082 108.200,296.951 107.710 L 296.712 106.821 268.856 106.710 L 241.000 106.600 232.200 97.699 C 227.360 92.803,218.720 84.026,213.000 78.194 C 207.280 72.362,202.435 67.593,202.233 67.595 C 202.031 67.598,193.037 76.420,182.246 87.200 M206.714 86.309 C 208.851 88.460,216.601 96.290,223.935 103.709 L 237.271 117.200 261.555 117.200 C 279.910 117.200,285.957 117.317,286.320 117.680 C 286.683 118.043,286.800 124.129,286.800 142.622 L 286.800 167.084 304.235 184.514 C 317.267 197.541,321.586 202.091,321.335 202.525 C 321.151 202.845,313.305 210.898,303.900 220.420 L 286.800 237.733 286.800 262.187 C 286.800 280.673,286.683 286.757,286.320 287.120 C 285.957 287.483,279.905 287.600,261.531 287.600 L 237.222 287.600 222.911 302.034 C 205.285 319.812,202.884 322.171,202.279 322.308 C 202.016 322.368,193.976 314.584,184.413 305.011 L 167.026 287.606 142.413 287.503 L 117.800 287.400 117.600 262.508 L 117.400 237.616 103.518 223.708 C 83.690 203.843,82.800 202.927,82.800 202.374 C 82.800 201.925,89.280 195.265,110.500 173.907 L 117.600 166.761 117.600 142.461 C 117.600 124.093,117.717 118.043,118.080 117.680 C 118.443 117.317,124.458 117.200,142.702 117.200 L 166.844 117.200 184.271 99.800 C 193.855 90.230,201.952 82.400,202.263 82.400 C 202.574 82.400,204.577 84.159,206.714 86.309 M185.581 105.100 L 169.400 121.400 146.141 121.509 C 127.645 121.596,122.794 121.725,122.451 122.139 C 122.156 122.495,121.984 130.014,121.910 145.917 L 121.800 169.175 117.000 173.959 C 95.960 194.925,89.191 201.911,89.396 202.445 C 89.610 203.004,98.972 212.652,114.697 228.519 L 121.994 235.882 122.097 259.241 L 122.200 282.600 145.485 282.800 L 168.770 283.000 170.811 285.000 C 171.933 286.100,179.005 293.172,186.526 300.716 C 194.047 308.259,200.690 314.793,201.290 315.236 L 202.380 316.040 218.787 299.520 L 235.195 283.000 258.698 282.800 L 282.200 282.600 282.303 259.059 L 282.406 235.519 298.503 219.331 C 307.356 210.428,314.735 202.903,314.899 202.609 C 315.105 202.241,310.095 196.973,298.799 185.681 L 282.400 169.288 282.400 145.924 C 282.400 128.285,282.282 122.442,281.920 122.080 C 281.558 121.718,275.762 121.600,258.288 121.600 L 235.135 121.600 227.468 113.882 C 223.250 109.638,215.939 102.258,211.220 97.482 C 206.501 92.707,202.443 88.800,202.202 88.800 C 201.960 88.800,194.481 96.135,185.581 105.100 M201.000 154.772 C 209.655 157.102,214.411 161.716,216.490 169.800 C 217.117 172.238,217.377 213.125,216.801 218.734 C 216.149 225.085,214.969 227.728,210.961 231.818 C 208.051 234.787,205.723 235.978,200.934 236.949 C 194.419 238.269,183.095 237.150,180.369 234.917 C 180.021 234.633,179.528 234.400,179.272 234.400 C 177.279 234.400,171.879 226.700,170.717 222.200 C 169.959 219.268,169.975 173.775,170.735 169.800 C 172.055 162.893,176.893 157.300,183.200 155.388 C 184.410 155.021,185.850 154.573,186.400 154.392 C 188.441 153.721,198.020 153.970,201.000 154.772 M256.036 154.767 C 263.066 156.587,268.573 160.820,270.182 165.642 C 272.039 171.206,272.015 170.925,272.435 191.520 C 273.085 223.438,272.176 228.097,264.200 233.701 C 256.169 239.345,238.223 238.648,232.009 232.452 C 230.816 231.262,228.800 228.492,228.800 228.042 C 228.800 227.799,228.653 227.600,228.474 227.600 C 226.457 227.600,225.614 220.848,225.156 201.000 C 224.766 184.126,224.797 180.881,225.416 173.800 C 226.329 163.356,231.660 156.316,239.654 154.998 C 240.614 154.839,241.670 154.556,242.000 154.367 C 243.211 153.675,252.883 153.951,256.036 154.767 M161.371 155.829 C 162.457 156.914,162.315 235.003,161.226 235.586 C 160.078 236.201,142.701 236.141,142.080 235.520 C 141.717 235.157,141.600 228.893,141.600 209.780 L 141.600 184.520 140.446 182.928 C 138.847 180.720,137.230 180.071,132.566 179.766 C 127.545 179.437,127.600 179.503,127.600 173.813 C 127.600 168.644,127.962 167.793,130.293 167.489 C 135.150 166.856,143.023 162.457,147.588 157.826 L 150.177 155.200 155.460 155.200 C 159.729 155.200,160.863 155.321,161.371 155.829 M244.907 170.594 C 244.697 170.970,244.609 172.158,244.713 173.234 C 244.997 176.187,241.728 178.347,239.917 176.403 C 237.839 174.172,237.597 175.196,238.068 184.236 C 238.535 193.198,238.209 205.552,237.410 209.200 C 235.932 215.942,235.636 219.476,236.480 220.320 C 237.718 221.558,239.199 220.226,239.203 217.871 C 239.205 216.952,239.458 214.220,239.766 211.800 C 240.074 209.380,240.444 204.520,240.589 201.000 C 240.957 192.042,241.695 190.424,245.431 190.394 C 247.260 190.379,247.287 190.227,247.139 180.663 C 247.007 172.056,246.959 171.580,246.145 170.767 C 245.357 169.979,245.259 169.966,244.907 170.594 M250.317 170.900 C 249.708 171.975,249.607 181.832,250.160 186.332 C 250.599 189.902,251.033 190.397,253.729 190.409 C 255.130 190.415,256.116 190.661,256.777 191.168 L 257.753 191.919 258.074 203.459 C 258.251 209.807,258.496 215.900,258.620 217.000 C 259.094 221.207,261.453 221.687,261.342 217.553 C 261.103 208.716,260.364 193.750,259.964 189.655 C 259.680 186.745,259.578 182.436,259.717 179.188 C 259.989 172.831,259.596 171.954,257.772 174.845 C 257.012 176.048,256.575 176.395,256.074 176.191 C 255.703 176.040,254.873 175.759,254.228 175.566 C 252.738 175.119,252.414 174.587,252.406 172.580 C 252.397 170.165,251.255 169.247,250.317 170.900 M192.376 171.028 C 192.041 171.433,191.845 172.907,191.828 175.167 C 191.796 179.211,191.389 180.000,189.337 180.000 C 186.869 180.000,186.000 179.057,186.000 176.378 C 186.000 171.746,183.815 172.937,183.485 177.749 C 183.175 182.267,183.245 182.346,187.697 182.485 C 191.321 182.598,191.389 182.619,191.771 183.706 C 192.380 185.443,191.546 185.915,186.998 186.407 C 181.466 187.005,181.698 186.880,181.377 189.446 C 180.781 194.214,181.375 217.796,182.119 218.932 C 182.549 219.588,183.028 219.887,183.412 219.740 C 184.602 219.283,184.772 218.211,184.293 214.162 C 184.035 211.983,183.819 205.970,183.812 200.800 C 183.798 189.983,183.833 189.899,187.242 192.500 C 189.405 194.150,189.514 195.156,187.600 195.798 C 184.549 196.821,185.618 198.261,189.600 198.495 L 191.400 198.600 191.400 200.200 C 191.400 201.740,191.348 201.804,190.000 201.914 C 185.667 202.268,185.023 204.800,189.266 204.800 C 192.065 204.800,192.166 205.142,191.824 213.499 C 191.511 221.159,191.820 222.596,193.725 222.325 C 194.585 222.202,194.603 222.058,194.800 214.000 C 195.026 204.752,195.012 204.800,197.375 204.800 C 199.570 204.800,200.361 204.011,199.494 202.687 C 199.001 201.934,198.612 201.797,197.324 201.920 C 195.387 202.104,194.696 201.418,195.049 199.657 C 195.289 198.453,195.382 198.400,197.260 198.400 C 199.909 198.400,201.088 195.726,198.763 194.988 C 197.182 194.486,198.226 192.933,200.893 191.819 C 201.838 191.424,202.446 191.351,202.607 191.611 C 202.929 192.133,202.894 212.704,202.566 215.616 C 202.289 218.070,202.887 219.080,204.341 218.619 C 205.404 218.281,205.785 211.616,205.499 198.355 C 205.232 185.955,205.256 186.000,198.969 186.000 C 195.686 186.000,194.673 185.418,194.878 183.650 C 194.999 182.612,195.049 182.597,199.162 182.324 C 204.048 182.000,203.986 182.057,203.994 177.923 C 203.999 175.216,203.896 174.772,203.133 174.238 C 201.846 173.337,201.151 174.411,201.455 176.834 C 201.718 178.930,200.370 180.000,197.468 180.000 C 195.161 180.000,194.800 179.298,194.800 174.814 C 194.800 171.601,194.685 170.841,194.167 170.643 C 193.222 170.280,192.949 170.339,192.376 171.028 M256.179 178.617 C 257.557 179.193,257.638 179.321,257.381 180.517 C 256.899 182.765,256.263 182.941,253.612 181.560 C 249.837 179.592,252.154 176.935,256.179 178.617 M244.720 178.880 C 246.027 180.187,244.273 182.400,241.930 182.400 C 239.298 182.400,240.050 179.191,242.800 178.691 C 243.350 178.591,243.899 178.484,244.020 178.454 C 244.141 178.425,244.456 178.616,244.720 178.880 M255.769 184.266 C 257.969 185.315,258.120 188.800,255.966 188.800 C 253.621 188.800,251.455 186.165,252.381 184.436 C 252.921 183.427,253.906 183.377,255.769 184.266 M245.120 184.480 C 246.478 185.838,244.754 189.200,242.698 189.200 C 240.154 189.200,240.048 185.665,242.560 184.571 C 244.115 183.894,244.520 183.880,245.120 184.480 M199.733 189.301 C 200.340 189.745,200.177 189.917,198.310 190.801 C 197.151 191.351,195.688 192.385,195.060 193.100 C 193.560 194.806,193.244 194.756,190.878 192.439 C 189.777 191.360,188.499 190.358,188.038 190.212 C 187.577 190.066,187.200 189.789,187.200 189.597 C 187.200 188.797,198.672 188.526,199.733 189.301 M249.876 193.620 L 249.048 194.290 249.915 194.754 C 251.666 195.692,251.902 198.400,250.233 198.400 C 249.262 198.400,249.189 199.967,250.136 200.465 C 251.556 201.213,251.588 201.440,251.594 211.100 C 251.600 219.897,251.644 220.444,252.409 221.209 C 253.864 222.664,254.953 221.619,254.650 219.061 C 253.946 213.122,253.873 200.824,254.540 200.567 C 255.364 200.252,255.396 199.061,254.600 198.400 C 253.925 197.840,253.787 195.779,254.400 195.400 C 254.863 195.114,254.947 193.227,254.500 193.146 C 252.745 192.829,250.579 193.051,249.876 193.620 M244.100 193.648 C 242.546 194.096,242.431 194.939,243.800 195.837 C 245.128 196.707,245.063 197.758,243.618 198.787 C 242.279 199.741,242.368 200.655,243.855 201.221 C 244.930 201.630,245.259 208.131,244.367 211.345 C 244.131 212.195,243.778 213.725,243.583 214.745 C 243.389 215.765,242.958 217.770,242.626 219.200 C 241.886 222.388,242.089 223.292,243.506 223.123 C 244.599 222.993,244.995 221.953,245.984 216.600 C 246.188 215.500,246.537 213.790,246.760 212.800 C 246.983 211.810,247.173 208.793,247.183 206.095 C 247.194 203.015,247.378 200.904,247.678 200.424 C 248.048 199.831,248.048 199.423,247.678 198.611 C 247.116 197.379,247.051 196.000,247.553 196.000 C 248.015 196.000,248.406 194.481,248.130 193.761 C 247.886 193.126,246.083 193.075,244.100 193.648 M124.300 198.238 C 126.563 200.841,125.727 204.216,122.514 205.450 C 120.112 206.373,117.201 205.013,116.629 202.700 C 115.342 197.488,120.858 194.279,124.300 198.238 M288.175 196.862 C 288.732 197.115,289.561 198.093,290.017 199.035 C 292.693 204.563,285.138 208.629,282.018 203.340 C 279.743 199.484,284.030 194.973,288.175 196.862 M269.793 243.745 C 272.431 245.674,275.077 245.600,203.613 245.600 L 137.200 245.600 137.200 244.629 C 137.200 244.041,137.476 243.586,137.900 243.475 C 139.879 242.957,269.077 243.222,269.793 243.745 M142.720 253.280 C 143.789 254.349,143.349 264.747,142.223 265.030 C 140.613 265.434,140.400 264.973,140.398 261.076 C 140.396 258.597,140.200 257.027,139.798 256.254 C 139.172 255.054,139.013 253.521,139.467 253.067 C 139.914 252.619,142.210 252.770,142.720 253.280 M160.787 253.393 C 164.674 255.403,161.638 265.223,157.138 265.194 C 155.134 265.181,155.064 264.607,156.841 262.760 L 158.534 261.000 154.886 260.767 C 150.496 260.487,149.635 259.829,149.613 256.736 C 149.588 253.179,156.420 251.135,160.787 253.393 M173.348 253.700 C 173.888 255.714,173.623 264.283,173.005 264.796 C 171.208 266.287,170.400 265.040,170.400 260.776 C 170.400 257.332,170.282 256.608,169.560 255.632 C 168.306 253.935,169.030 252.800,171.367 252.800 C 172.833 252.800,173.145 252.942,173.348 253.700 M191.000 253.427 C 194.792 255.226,191.908 265.200,187.596 265.200 C 185.168 265.200,185.061 264.841,186.892 262.854 L 188.600 261.000 186.200 260.901 C 180.656 260.672,180.000 260.235,180.000 256.766 C 180.000 254.513,180.068 254.347,181.300 253.596 C 182.989 252.566,188.966 252.462,191.000 253.427 M220.681 253.277 C 224.678 254.981,224.039 259.540,219.568 261.212 C 216.700 262.285,216.785 262.466,220.301 262.768 C 222.698 262.974,223.014 263.099,223.126 263.886 C 223.300 265.106,222.451 265.253,216.005 265.115 C 208.779 264.961,208.482 263.213,215.212 260.440 C 218.916 258.913,220.000 258.178,220.000 257.191 C 220.000 255.037,213.992 254.916,213.179 257.055 C 212.800 258.051,211.510 258.310,210.406 257.612 C 209.309 256.918,210.690 253.974,212.400 253.362 C 214.209 252.714,219.241 252.663,220.681 253.277 M237.675 253.373 C 241.373 254.919,240.857 264.303,237.034 265.020 C 233.580 265.668,228.798 265.079,227.765 263.878 C 226.579 262.498,226.336 256.048,227.416 254.619 C 228.753 252.852,234.699 252.130,237.675 253.373 M248.343 253.331 C 249.023 254.151,249.016 264.417,248.334 264.849 C 246.382 266.087,245.804 265.056,245.783 260.303 C 245.772 257.813,245.591 256.231,245.283 255.923 C 244.767 255.407,244.624 253.510,245.067 253.067 C 245.539 252.594,247.888 252.783,248.343 253.331 M266.653 253.509 C 270.857 256.914,265.719 267.670,261.243 264.835 C 260.809 264.560,261.064 264.103,262.414 262.741 L 264.140 261.000 260.420 260.763 C 256.017 260.483,255.215 259.871,255.222 256.800 C 255.229 253.551,256.428 252.825,261.800 252.821 C 264.997 252.818,265.971 252.956,266.653 253.509 M153.067 255.867 C 151.946 256.987,152.919 257.933,155.487 258.219 C 158.721 258.579,160.914 257.131,158.826 256.014 C 157.973 255.558,153.490 255.443,153.067 255.867 M183.182 256.222 C 182.114 257.509,183.892 258.497,186.704 258.179 C 189.187 257.898,190.106 257.066,189.074 256.034 C 188.379 255.339,183.793 255.486,183.182 256.222 M230.700 256.032 C 229.557 256.698,229.700 261.344,230.889 262.177 C 233.751 264.182,236.800 262.539,236.800 258.991 C 236.800 256.867,236.668 256.357,236.026 256.014 C 235.040 255.486,231.617 255.498,230.700 256.032 M258.667 255.867 C 257.537 256.996,258.553 257.970,261.077 258.177 C 264.390 258.449,266.238 257.348,264.545 256.111 C 263.826 255.584,259.143 255.390,258.667 255.867 M205.000 259.200 C 205.000 260.456,198.217 261.032,197.751 259.816 C 197.159 258.275,197.832 257.964,201.493 258.084 C 204.936 258.198,205.000 258.218,205.000 259.200 " stroke="none" fill="#fbfbfb" fill-rule="evenodd"></path></g></svg>