<svg id="svg" xmlns="http://www.w3.org/2000/svg" xmlns:xlink="http://www.w3.org/1999/xlink" width="400" height="400" viewBox="0, 0, 400,400"><g id="svgg"><path id="path0" d="M186.200 27.217 C 174.430 28.293,168.919 28.984,165.600 29.799 C 164.390 30.096,161.960 30.642,160.200 31.012 C 154.245 32.263,141.316 36.007,140.200 36.804 C 139.980 36.961,138.720 37.413,137.400 37.809 C 136.080 38.204,134.550 38.759,134.000 39.042 C 132.702 39.710,130.701 40.570,128.165 41.550 C 125.641 42.526,112.830 49.086,111.969 49.844 C 111.621 50.150,111.219 50.400,111.075 50.400 C 110.753 50.400,106.678 52.858,106.400 53.220 C 106.290 53.364,105.468 53.913,104.573 54.440 C 98.480 58.034,91.693 63.183,83.011 70.800 C 78.052 75.151,68.512 85.076,64.400 90.163 C 63.190 91.660,61.930 93.211,61.600 93.610 C 59.372 96.302,51.074 108.392,49.604 111.089 C 49.150 111.920,48.402 113.230,47.942 114.000 C 47.481 114.770,46.666 116.210,46.130 117.200 C 45.595 118.190,44.986 119.270,44.776 119.600 C 44.443 120.125,41.604 126.122,38.810 132.200 C 38.305 133.300,37.461 135.425,36.935 136.922 C 36.410 138.419,35.820 139.949,35.625 140.322 C 35.172 141.190,34.258 143.942,33.408 147.000 C 33.041 148.320,32.508 149.940,32.223 150.600 C 31.938 151.260,31.395 153.150,31.017 154.800 C 30.639 156.450,30.094 158.700,29.806 159.800 C 28.738 163.877,28.022 167.521,27.409 172.000 C 27.064 174.530,26.607 177.591,26.395 178.801 C 24.663 188.690,24.662 212.677,26.394 220.556 C 26.593 221.460,27.050 224.630,27.411 227.600 C 27.771 230.570,28.243 233.540,28.460 234.200 C 28.677 234.860,29.009 236.210,29.197 237.200 C 29.842 240.588,31.684 247.799,32.213 249.000 C 32.503 249.660,33.038 251.280,33.401 252.600 C 33.763 253.920,34.600 256.440,35.260 258.200 C 35.920 259.960,36.655 261.940,36.893 262.600 C 38.015 265.706,43.839 278.517,44.804 280.000 C 45.018 280.330,45.773 281.680,46.482 283.000 C 47.190 284.320,47.956 285.691,48.185 286.046 C 48.413 286.401,49.026 287.481,49.546 288.446 C 50.066 289.411,50.966 290.830,51.546 291.600 C 52.126 292.370,52.931 293.613,53.335 294.363 C 53.739 295.113,54.340 295.997,54.670 296.327 C 55.000 296.657,55.728 297.652,56.286 298.537 C 56.845 299.422,58.314 301.484,59.551 303.121 C 60.788 304.757,62.160 306.579,62.600 307.169 C 66.134 311.909,78.944 325.504,83.000 328.819 C 83.660 329.359,85.820 331.170,87.800 332.845 C 92.789 337.066,100.255 342.555,104.863 345.392 C 105.228 345.616,107.028 346.726,108.863 347.858 C 114.571 351.379,127.278 358.000,128.327 358.000 C 128.525 358.000,129.699 358.540,130.936 359.200 C 132.173 359.860,133.452 360.400,133.779 360.400 C 134.106 360.400,134.964 360.655,135.686 360.967 C 136.409 361.278,137.630 361.802,138.400 362.132 C 139.170 362.461,140.790 363.039,142.000 363.417 C 143.210 363.795,146.327 364.801,148.926 365.652 C 151.525 366.504,154.029 367.200,154.491 367.200 C 154.952 367.200,156.246 367.458,157.365 367.774 C 162.120 369.114,164.445 369.618,168.600 370.210 C 171.020 370.555,174.800 371.093,177.000 371.407 C 190.598 373.345,207.972 373.339,218.653 371.393 C 220.442 371.067,222.449 370.800,223.113 370.800 C 224.538 370.800,233.511 369.302,234.039 368.976 C 234.239 368.853,235.257 368.589,236.301 368.390 C 238.052 368.058,240.120 367.570,244.800 366.387 C 245.790 366.137,246.960 365.768,247.400 365.568 C 248.667 364.991,253.246 363.600,253.877 363.600 C 254.192 363.600,255.383 363.162,256.525 362.626 C 257.666 362.090,259.097 361.530,259.704 361.382 C 260.311 361.233,260.906 360.951,261.027 360.756 C 261.148 360.560,261.552 360.399,261.924 360.398 C 262.296 360.398,263.680 359.858,265.000 359.200 C 266.320 358.542,267.542 358.002,267.716 358.002 C 268.118 358.000,277.795 353.253,281.075 351.449 C 289.621 346.750,301.124 338.952,307.405 333.600 C 308.309 332.830,310.028 331.394,311.224 330.409 C 324.275 319.670,342.128 297.515,349.704 282.658 C 350.393 281.306,351.158 279.930,351.403 279.600 C 351.649 279.270,352.194 278.190,352.614 277.200 C 353.034 276.210,353.877 274.537,354.489 273.482 C 355.100 272.428,355.600 271.393,355.600 271.183 C 355.600 270.974,356.158 269.587,356.839 268.101 C 358.665 264.122,359.033 263.220,359.799 260.855 C 360.181 259.675,360.742 258.235,361.045 257.655 C 361.347 257.075,361.596 256.296,361.598 255.924 C 361.599 255.552,361.780 255.136,362.000 255.000 C 362.220 254.864,362.400 254.434,362.400 254.044 C 362.400 253.264,363.862 248.154,364.359 247.200 C 364.531 246.870,365.069 244.800,365.556 242.600 C 366.042 240.400,366.598 237.970,366.791 237.200 C 368.306 231.162,368.343 230.932,370.194 216.000 C 371.025 209.296,371.045 189.981,370.227 183.800 C 369.907 181.380,369.356 176.970,369.003 174.000 C 368.649 171.030,368.108 167.700,367.799 166.600 C 367.491 165.500,366.935 163.160,366.565 161.400 C 365.612 156.868,364.647 153.210,363.189 148.600 C 362.493 146.400,361.779 144.010,361.601 143.289 C 361.424 142.567,361.105 141.757,360.892 141.489 C 360.680 141.220,360.190 140.010,359.805 138.800 C 359.420 137.590,358.832 135.970,358.499 135.200 C 358.166 134.430,357.542 132.990,357.111 132.000 C 356.680 131.010,356.178 129.840,355.994 129.400 C 355.439 128.068,351.399 119.961,350.014 117.400 C 345.291 108.667,337.023 96.369,331.839 90.366 C 331.157 89.577,329.970 88.137,329.200 87.166 C 326.892 84.256,313.268 70.756,309.370 67.517 C 304.863 63.772,291.630 54.000,291.066 54.000 C 290.942 54.000,290.066 53.481,289.120 52.847 C 288.174 52.213,286.770 51.347,286.000 50.923 C 285.230 50.498,283.913 49.732,283.074 49.221 C 277.964 46.105,265.108 40.053,259.400 38.075 C 258.740 37.847,256.760 37.125,255.000 36.473 C 253.240 35.820,250.630 34.978,249.200 34.601 C 247.770 34.225,245.970 33.684,245.200 33.400 C 243.487 32.768,240.050 31.893,235.800 31.007 C 234.040 30.640,231.880 30.141,231.000 29.899 C 229.240 29.413,227.260 29.129,219.200 28.204 C 207.054 26.811,194.682 26.441,186.200 27.217 M207.925 35.999 C 211.156 36.219,215.600 36.660,217.800 36.979 C 220.000 37.298,223.330 37.762,225.200 38.011 C 233.741 39.146,256.624 45.696,258.980 47.680 C 259.189 47.856,259.590 48.000,259.871 48.000 C 260.152 48.000,261.691 48.606,263.291 49.347 C 264.891 50.088,267.370 51.206,268.800 51.831 C 270.230 52.457,271.490 53.087,271.600 53.232 C 271.710 53.376,272.790 53.974,274.000 54.561 C 276.567 55.804,281.247 58.407,282.046 59.035 C 282.351 59.275,283.770 60.164,285.200 61.011 C 286.630 61.858,287.890 62.665,288.000 62.805 C 288.110 62.944,288.470 63.178,288.800 63.324 C 297.465 67.166,321.571 90.384,330.800 103.778 C 331.130 104.257,332.075 105.562,332.900 106.678 C 333.725 107.794,334.400 108.899,334.400 109.134 C 334.400 109.368,334.648 109.704,334.952 109.880 C 335.255 110.056,335.846 110.830,336.265 111.600 C 336.684 112.370,337.487 113.720,338.050 114.600 C 339.787 117.314,343.817 124.626,345.437 128.000 C 347.510 132.319,348.969 135.639,350.183 138.800 C 350.563 139.790,351.115 141.140,351.410 141.800 C 351.705 142.460,352.572 144.890,353.336 147.200 C 354.100 149.510,354.902 151.850,355.117 152.400 C 355.332 152.950,355.809 154.750,356.177 156.400 C 356.545 158.050,357.095 160.300,357.399 161.400 C 357.703 162.500,358.147 164.120,358.386 165.000 C 358.836 166.652,359.263 169.330,360.014 175.200 C 360.253 177.070,360.630 179.187,360.852 179.904 C 362.275 184.510,362.271 215.098,360.847 219.709 C 360.627 220.419,360.154 223.250,359.794 226.000 C 359.133 231.056,358.453 234.553,357.423 238.200 C 357.112 239.300,356.552 241.460,356.178 243.000 C 355.513 245.738,354.391 249.394,353.640 251.264 C 353.433 251.779,352.972 253.190,352.614 254.400 C 352.257 255.610,351.719 257.140,351.419 257.800 C 351.119 258.460,350.562 259.810,350.182 260.800 C 349.508 262.555,348.936 263.884,346.915 268.400 C 345.789 270.917,342.435 277.602,341.999 278.200 C 341.838 278.420,341.213 279.500,340.610 280.600 C 339.170 283.223,337.171 286.392,334.100 290.917 C 332.726 292.942,330.978 295.525,330.217 296.655 C 329.456 297.785,328.601 298.955,328.317 299.255 C 328.032 299.555,326.723 301.150,325.406 302.800 C 324.089 304.450,322.435 306.430,321.729 307.200 C 321.024 307.970,319.878 309.230,319.183 310.000 C 313.402 316.407,303.288 325.753,297.000 330.499 C 293.177 333.385,284.024 339.410,279.458 342.047 C 275.764 344.180,266.652 348.781,266.100 348.791 C 265.825 348.796,265.600 348.980,265.600 349.200 C 265.600 349.420,265.402 349.600,265.160 349.600 C 264.919 349.600,264.154 349.846,263.460 350.146 C 262.767 350.446,261.390 351.005,260.400 351.389 C 259.410 351.772,258.150 352.316,257.600 352.597 C 256.187 353.320,244.935 357.076,241.919 357.832 C 240.533 358.179,238.410 358.734,237.200 359.064 C 235.990 359.395,234.100 359.836,233.000 360.045 C 231.900 360.254,230.190 360.602,229.200 360.819 C 228.210 361.037,226.230 361.385,224.800 361.593 C 223.370 361.801,220.940 362.155,219.400 362.379 C 212.071 363.447,209.001 363.636,198.400 363.672 C 187.436 363.709,177.847 363.063,173.600 362.001 C 172.830 361.808,170.490 361.363,168.400 361.012 C 163.644 360.212,159.533 359.320,157.200 358.583 C 156.210 358.270,153.892 357.653,152.048 357.213 C 150.205 356.773,148.495 356.254,148.248 356.060 C 148.002 355.866,147.350 355.606,146.800 355.482 C 145.330 355.150,139.120 352.996,138.196 352.497 C 137.758 352.260,135.780 351.398,133.800 350.581 C 131.820 349.765,128.760 348.374,127.000 347.492 C 125.240 346.610,122.900 345.443,121.800 344.898 C 115.659 341.860,103.492 334.064,98.569 330.013 C 97.893 329.456,96.639 328.460,95.783 327.800 C 94.504 326.814,89.553 322.627,87.749 321.006 C 79.970 314.016,68.659 301.101,63.275 293.063 C 59.747 287.797,57.727 284.599,56.411 282.200 C 55.687 280.880,54.963 279.620,54.803 279.400 C 54.540 279.038,51.498 273.461,50.767 272.000 C 50.602 271.670,50.166 270.680,49.799 269.800 C 49.431 268.920,48.705 267.300,48.185 266.200 C 46.463 262.558,44.755 258.254,43.344 254.000 C 42.578 251.690,41.786 249.440,41.585 249.000 C 41.383 248.560,40.844 246.670,40.387 244.800 C 39.929 242.930,39.396 241.040,39.201 240.600 C 38.577 239.192,37.114 231.934,36.386 226.637 C 36.177 225.117,35.833 223.317,35.622 222.637 C 33.607 216.148,33.725 187.573,35.816 175.800 C 36.129 174.040,36.672 170.890,37.023 168.800 C 38.240 161.549,43.249 144.140,45.169 140.489 C 45.368 140.110,45.917 138.810,46.387 137.600 C 47.631 134.402,47.845 133.919,50.833 127.558 C 51.534 126.064,54.786 120.037,55.945 118.082 C 56.635 116.918,57.200 115.902,57.200 115.825 C 57.200 115.200,68.083 99.574,69.784 97.756 C 70.013 97.511,70.740 96.613,71.400 95.760 C 79.574 85.192,98.548 68.387,110.521 61.109 C 110.785 60.949,112.710 59.820,114.800 58.600 C 116.890 57.380,118.870 56.213,119.200 56.008 C 121.187 54.769,135.390 48.000,136.002 48.000 C 136.369 48.000,138.724 47.047,140.125 46.332 C 145.289 43.696,165.101 38.606,174.000 37.630 C 175.870 37.425,178.300 37.058,179.400 36.814 C 183.997 35.796,198.739 35.375,207.925 35.999 M193.633 44.771 C 193.160 45.071,193.060 47.773,193.033 61.065 L 193.000 77.000 195.334 77.121 C 198.675 77.294,198.800 77.109,198.800 71.973 C 198.800 66.098,199.570 57.466,200.124 57.123 C 200.399 56.953,201.053 57.727,201.813 59.123 C 204.174 63.456,208.134 70.572,210.859 75.375 C 212.365 78.030,213.377 78.537,216.735 78.320 L 218.600 78.200 218.814 75.200 C 218.932 73.550,219.149 72.004,219.298 71.764 C 219.446 71.525,219.751 68.915,219.976 65.964 C 220.201 63.014,220.650 57.367,220.974 53.415 C 221.298 49.463,221.479 46.146,221.376 46.043 C 220.854 45.520,215.793 45.237,215.347 45.705 C 214.855 46.220,214.003 54.948,213.996 59.557 C 213.987 64.808,212.807 67.098,211.656 64.100 C 211.423 63.495,210.718 62.100,210.088 61.000 C 208.802 58.753,206.343 54.312,204.885 51.600 C 204.353 50.610,203.208 48.585,202.341 47.100 L 200.765 44.400 197.482 44.406 C 195.677 44.409,193.945 44.574,193.633 44.771 M174.150 46.025 C 172.137 46.624,171.879 47.197,172.420 49.872 C 172.678 51.152,173.041 53.010,173.226 54.000 C 173.410 54.990,173.842 56.970,174.186 58.400 C 175.650 64.485,176.425 68.976,176.193 70.032 C 175.395 73.665,170.190 75.953,166.759 74.179 C 164.254 72.884,163.769 71.687,161.981 62.400 C 161.748 61.190,161.302 59.300,160.990 58.200 C 160.501 56.481,159.200 50.308,159.200 49.712 C 159.200 49.600,158.615 49.626,157.900 49.769 C 157.185 49.912,156.060 50.135,155.400 50.263 C 152.374 50.854,152.326 52.207,154.989 61.800 C 155.295 62.900,155.836 65.240,156.193 67.000 C 158.653 79.133,162.344 81.983,172.965 79.948 C 181.389 78.335,184.085 73.180,181.969 62.731 C 181.202 58.943,179.938 53.037,179.587 51.600 C 179.400 50.830,179.101 49.210,178.923 48.000 L 178.600 45.800 177.000 45.727 C 176.120 45.687,174.838 45.821,174.150 46.025 M234.141 49.276 C 233.733 49.815,232.975 52.231,232.660 54.000 C 232.561 54.550,232.293 55.540,232.064 56.200 C 231.835 56.860,231.350 58.840,230.987 60.600 C 230.188 64.468,229.335 67.977,228.604 70.400 C 226.751 76.541,226.480 80.800,227.942 80.800 C 228.363 80.800,229.224 81.069,229.854 81.398 C 232.353 82.701,232.691 82.299,234.050 76.400 C 234.890 72.754,235.121 71.842,236.382 67.200 C 236.830 65.550,237.367 63.300,237.575 62.200 C 237.784 61.100,238.249 59.210,238.608 58.000 C 239.775 54.077,240.411 51.142,240.178 50.764 C 239.415 49.530,234.808 48.395,234.141 49.276 M250.113 53.925 C 249.797 54.123,249.477 56.405,249.203 60.416 C 248.970 63.817,248.609 67.320,248.400 68.200 C 248.190 69.080,248.013 71.060,248.007 72.600 C 248.000 74.140,247.827 76.480,247.623 77.800 C 247.419 79.120,247.131 81.755,246.982 83.656 L 246.713 87.112 249.295 88.556 C 253.526 90.922,251.215 92.598,272.300 71.877 C 277.991 66.284,277.929 66.466,274.779 64.619 C 271.496 62.695,272.319 62.194,263.014 71.800 C 258.432 76.530,254.530 80.400,254.342 80.400 C 253.887 80.400,253.910 77.751,254.381 76.000 C 255.173 73.056,256.743 57.139,256.348 56.070 C 256.101 55.402,254.929 54.877,251.400 53.851 C 250.960 53.723,250.381 53.756,250.113 53.925 M125.014 62.378 C 124.871 62.609,123.774 63.262,122.577 63.828 C 120.008 65.043,119.905 65.512,121.546 68.508 C 122.900 70.978,128.001 80.137,130.397 84.400 C 131.325 86.050,132.718 88.570,133.493 90.000 C 135.258 93.259,135.533 93.600,136.399 93.600 C 137.315 93.600,140.809 91.641,141.061 90.986 C 141.298 90.367,140.582 88.926,133.938 76.651 C 132.762 74.478,131.063 71.328,130.163 69.651 C 125.918 61.743,125.645 61.357,125.014 62.378 M279.128 80.128 C 267.825 95.395,266.400 97.353,266.400 97.611 C 266.400 97.751,267.165 98.472,268.100 99.212 C 269.035 99.952,270.160 100.875,270.600 101.264 C 271.726 102.258,277.893 107.243,279.152 108.177 C 279.729 108.604,280.993 109.668,281.962 110.542 L 283.724 112.131 285.250 110.365 C 287.143 108.175,287.150 107.903,285.344 106.517 C 284.543 105.903,283.590 105.130,283.227 104.800 C 282.654 104.279,279.821 101.964,278.000 100.528 C 274.089 97.445,274.055 97.250,276.834 93.757 C 279.430 90.495,279.264 90.464,285.359 95.375 C 291.097 99.999,291.059 99.990,293.050 97.123 C 294.319 95.297,294.525 95.595,288.867 91.053 C 282.242 85.736,282.468 86.421,285.902 82.100 C 287.659 79.890,287.423 79.800,294.000 85.182 C 301.208 91.080,301.588 91.231,303.559 88.986 C 305.194 87.123,305.138 86.762,302.932 84.941 C 301.904 84.094,300.312 82.770,299.393 82.000 C 298.474 81.230,296.494 79.610,294.993 78.400 C 293.491 77.190,291.975 75.930,291.624 75.600 C 289.740 73.831,286.613 71.604,286.048 71.628 C 285.685 71.644,282.636 75.390,279.128 80.128 M99.400 79.959 C 95.653 82.320,94.833 84.398,96.633 86.969 C 96.945 87.414,97.200 88.152,97.200 88.609 C 97.200 89.066,97.358 89.611,97.551 89.820 C 97.745 90.029,98.308 91.550,98.804 93.200 C 99.299 94.850,99.839 96.380,100.004 96.600 C 100.169 96.820,100.953 98.935,101.748 101.299 C 102.542 103.663,103.363 105.913,103.572 106.299 C 103.780 106.685,104.613 109.014,105.422 111.475 C 107.225 116.960,107.550 117.164,110.100 114.402 C 112.262 112.060,112.311 111.802,111.160 108.794 C 109.475 104.393,109.249 104.904,114.890 100.366 C 118.671 97.325,119.795 96.775,120.620 97.562 C 121.121 98.040,125.531 100.400,125.923 100.400 C 126.515 100.400,130.571 97.595,130.945 96.926 C 131.435 96.051,131.288 95.948,123.057 91.441 C 121.549 90.615,119.161 89.233,117.750 88.370 C 116.340 87.506,115.095 86.800,114.984 86.800 C 114.873 86.800,113.391 86.003,111.691 85.029 C 100.168 78.429,101.172 78.843,99.400 79.959 M190.356 84.577 C 190.259 84.675,188.204 84.955,185.791 85.201 C 179.674 85.823,169.488 87.633,168.120 88.341 C 167.337 88.745,163.778 89.776,161.705 90.198 C 160.992 90.343,160.306 90.628,160.181 90.831 C 160.055 91.034,159.524 91.200,159.000 91.200 C 158.476 91.200,157.952 91.354,157.836 91.542 C 157.720 91.730,156.494 92.285,155.112 92.775 C 152.225 93.799,141.868 98.903,139.200 100.617 C 138.210 101.253,136.787 102.110,136.037 102.521 C 135.287 102.933,134.453 103.479,134.184 103.735 C 133.915 103.991,132.033 105.361,130.002 106.781 C 121.745 112.550,111.900 122.276,105.483 131.000 C 104.674 132.100,103.871 133.180,103.699 133.400 C 102.729 134.641,99.722 139.453,96.826 144.400 C 96.016 145.783,92.470 153.139,91.812 154.800 C 91.420 155.790,90.869 157.140,90.586 157.800 C 88.447 162.806,85.944 171.072,85.201 175.586 C 85.000 176.804,84.558 179.330,84.218 181.200 C 82.718 189.453,82.287 211.859,83.560 215.400 C 83.797 216.060,84.171 217.770,84.391 219.200 C 85.621 227.184,88.726 238.449,90.757 242.291 C 90.963 242.681,91.527 243.990,92.011 245.200 C 95.911 254.948,103.589 267.184,111.021 275.494 C 118.102 283.410,126.421 290.800,133.200 295.195 C 134.630 296.122,136.336 297.258,136.991 297.720 C 139.727 299.647,152.965 306.397,154.011 306.399 C 154.347 306.400,154.977 306.648,155.411 306.951 C 155.845 307.255,158.000 308.078,160.200 308.780 C 162.400 309.483,164.830 310.302,165.600 310.600 C 167.007 311.146,169.870 311.804,175.800 312.946 C 177.560 313.285,180.530 313.875,182.400 314.257 C 187.362 315.270,208.638 315.270,213.600 314.257 C 215.470 313.875,218.440 313.286,220.200 312.948 C 225.518 311.927,228.935 311.123,230.200 310.593 C 230.860 310.317,232.480 309.781,233.800 309.402 C 236.445 308.642,238.554 307.865,241.026 306.740 C 241.921 306.333,242.789 306.000,242.956 306.000 C 244.561 306.000,263.198 295.588,264.400 294.020 C 264.510 293.876,265.492 293.164,266.583 292.437 C 270.646 289.729,278.560 282.552,283.402 277.185 C 286.614 273.625,287.430 272.630,290.187 268.917 C 291.623 266.982,292.981 265.179,293.206 264.909 C 293.431 264.639,294.244 263.379,295.015 262.109 C 295.785 260.839,296.585 259.530,296.792 259.200 C 297.799 257.597,300.685 252.485,301.081 251.600 C 301.328 251.050,302.075 249.430,302.740 248.000 C 303.406 246.570,304.327 244.410,304.786 243.200 C 305.246 241.990,305.775 240.640,305.961 240.200 C 307.078 237.565,307.353 236.787,307.867 234.800 C 308.180 233.590,308.603 232.060,308.808 231.400 C 312.223 220.400,314.245 202.916,313.204 193.400 C 312.939 190.980,312.581 187.650,312.409 186.000 C 311.827 180.418,309.871 170.511,309.223 169.863 C 308.990 169.630,308.800 169.034,308.800 168.539 C 308.800 168.043,308.635 167.224,308.434 166.719 C 308.233 166.213,307.664 164.450,307.171 162.800 C 306.677 161.150,306.153 159.620,306.006 159.400 C 305.858 159.180,305.412 158.100,305.015 157.000 C 304.617 155.900,303.416 153.149,302.346 150.887 C 301.276 148.624,300.400 146.599,300.400 146.387 C 300.400 146.174,300.265 145.999,300.100 145.997 C 299.935 145.995,299.613 145.590,299.383 145.097 C 298.623 143.460,297.004 140.603,296.713 140.385 C 296.556 140.266,295.982 139.332,295.438 138.309 C 294.441 136.434,288.536 128.262,286.499 125.937 C 279.387 117.821,273.472 112.215,267.250 107.693 C 265.353 106.314,263.287 104.784,262.659 104.293 C 262.032 103.802,260.675 102.950,259.644 102.400 C 258.614 101.850,257.209 100.995,256.523 100.500 C 255.838 100.005,255.177 99.600,255.056 99.600 C 254.934 99.600,253.882 99.036,252.718 98.348 C 250.406 96.981,242.313 93.199,239.538 92.190 C 236.105 90.941,229.396 88.800,228.917 88.800 C 228.647 88.800,227.836 88.549,227.114 88.242 C 224.984 87.337,219.068 86.306,207.579 84.837 C 204.292 84.417,190.721 84.212,190.356 84.577 M109.800 91.335 C 114.294 94.117,114.261 93.733,110.283 96.938 C 107.567 99.125,107.251 98.819,104.582 91.400 C 104.186 90.300,103.698 89.183,103.497 88.918 C 103.296 88.652,103.251 88.241,103.397 88.004 C 103.675 87.555,103.787 87.613,109.800 91.335 M196.393 94.100 C 196.389 94.375,189.712 101.260,181.555 109.400 L 166.723 124.200 145.862 124.302 C 123.327 124.411,122.923 124.376,125.018 122.494 C 129.577 118.397,132.186 116.150,132.748 115.834 C 133.107 115.633,133.490 115.358,133.600 115.223 C 134.104 114.606,140.977 109.927,143.068 108.779 C 144.350 108.074,145.670 107.296,146.000 107.049 C 146.614 106.590,153.957 102.924,155.400 102.357 C 155.840 102.184,157.407 101.493,158.883 100.821 C 160.359 100.150,161.805 99.600,162.097 99.600 C 162.636 99.600,166.737 98.267,168.200 97.616 C 169.023 97.250,169.444 97.146,173.200 96.375 C 174.410 96.126,176.402 95.670,177.626 95.362 C 178.851 95.053,180.381 94.797,181.026 94.792 C 181.672 94.788,183.100 94.534,184.200 94.228 C 186.860 93.488,196.403 93.388,196.393 94.100 M211.451 94.165 C 214.295 94.750,218.076 95.456,221.200 95.984 C 223.533 96.379,226.683 97.193,228.200 97.794 C 228.860 98.055,230.480 98.596,231.800 98.997 C 234.590 99.842,236.569 100.609,238.062 101.422 C 238.646 101.740,239.332 102.000,239.586 102.000 C 239.841 102.000,241.073 102.480,242.325 103.067 C 244.257 103.972,246.034 104.925,252.600 108.576 C 259.001 112.135,272.333 122.916,271.530 123.884 C 271.166 124.322,267.242 124.400,250.043 124.310 L 229.000 124.200 217.721 112.800 C 211.518 106.530,204.818 99.761,202.831 97.757 C 200.845 95.753,199.335 93.998,199.476 93.857 C 199.959 93.374,208.697 93.599,211.451 94.165 M309.929 100.114 C 308.019 101.701,305.949 103.397,305.329 103.883 C 304.708 104.368,303.660 105.243,303.000 105.826 C 302.340 106.410,299.730 108.566,297.200 110.617 C 287.968 118.104,288.252 117.621,291.250 120.709 L 292.910 122.418 294.155 121.407 C 294.840 120.850,296.682 119.408,298.248 118.201 C 299.814 116.995,301.321 115.736,301.597 115.404 C 302.350 114.496,303.052 114.669,303.997 115.996 C 305.810 118.541,305.547 120.660,302.482 128.200 L 300.693 132.600 301.988 135.030 C 303.693 138.227,304.507 138.751,305.502 137.291 C 306.460 135.885,308.796 130.492,308.813 129.648 C 308.820 129.292,309.090 128.651,309.413 128.224 C 309.736 127.796,310.000 126.956,310.000 126.356 C 310.000 123.858,310.565 123.558,312.967 124.783 C 316.751 126.712,320.915 126.057,324.318 122.997 C 328.706 119.053,328.531 114.756,323.747 108.927 C 323.058 108.087,320.666 105.105,318.431 102.300 C 313.664 96.315,314.302 96.479,309.929 100.114 M77.383 102.200 C 73.507 106.118,73.049 107.264,74.147 110.292 C 74.448 111.121,75.001 113.240,75.377 115.000 C 75.753 116.760,76.311 119.280,76.617 120.600 C 77.891 126.089,77.519 126.249,72.373 122.430 C 65.877 117.610,65.723 117.597,63.449 121.725 C 62.023 124.313,61.551 123.845,73.829 132.011 C 79.753 135.951,85.050 139.558,85.600 140.026 C 88.855 142.799,89.927 142.681,91.619 139.363 C 92.892 136.865,92.690 136.237,90.100 134.639 C 85.771 131.969,84.724 130.823,84.384 128.377 C 84.217 127.180,83.953 125.705,83.797 125.100 C 83.445 123.736,84.869 123.633,90.347 124.626 C 99.842 126.346,100.111 126.355,101.081 124.984 C 101.477 124.425,102.381 123.300,103.091 122.484 C 105.302 119.942,104.990 119.625,99.858 119.192 C 93.739 118.675,87.888 117.994,86.200 117.602 C 85.320 117.398,84.015 117.120,83.300 116.984 C 82.347 116.803,82.000 116.522,82.000 115.934 C 82.000 115.492,81.741 114.022,81.424 112.666 C 80.841 110.166,79.913 105.681,79.301 102.400 L 78.965 100.600 77.383 102.200 M212.349 119.652 L 225.492 132.800 231.046 132.810 C 234.101 132.815,242.696 132.811,250.147 132.800 C 259.775 132.786,263.854 132.913,264.247 133.239 C 264.704 133.618,264.800 137.048,264.800 152.907 L 264.800 172.115 278.400 185.729 C 285.880 193.216,292.000 199.579,292.000 199.868 C 292.000 200.158,285.966 206.381,278.592 213.697 L 265.184 227.000 265.192 246.486 C 265.200 265.346,265.175 265.985,264.426 266.386 C 263.924 266.655,256.938 266.800,244.501 266.800 L 225.350 266.800 212.095 280.200 C 204.086 288.297,198.544 293.600,198.092 293.600 C 197.642 293.600,192.009 288.255,183.972 280.203 L 170.600 266.805 151.800 266.797 C 141.460 266.793,132.600 266.682,132.111 266.551 L 131.222 266.312 131.111 246.770 L 131.000 227.227 117.800 214.029 C 109.280 205.511,104.561 200.507,104.490 199.916 C 104.401 199.185,107.010 196.378,117.424 186.000 C 124.598 178.850,130.633 172.583,130.834 172.074 C 131.037 171.560,131.200 162.722,131.200 152.225 L 131.200 133.302 132.837 133.041 C 133.737 132.897,142.585 132.794,152.501 132.812 L 170.528 132.846 184.250 119.162 C 196.043 107.401,198.058 105.550,198.589 105.991 C 198.928 106.273,205.121 112.420,212.349 119.652 M314.949 107.249 C 321.282 114.645,321.921 118.138,317.200 119.553 C 314.950 120.227,313.227 119.181,310.030 115.200 C 306.978 111.399,306.979 110.988,310.035 108.435 C 312.686 106.219,313.831 105.943,314.949 107.249 M122.772 147.578 L 122.800 168.155 107.300 183.578 L 91.800 199.000 91.678 197.095 C 91.515 194.559,92.713 182.110,93.209 181.183 C 93.424 180.781,93.600 179.933,93.600 179.298 C 93.600 178.662,93.847 177.345,94.148 176.371 C 94.449 175.397,95.017 173.160,95.409 171.400 C 95.801 169.640,96.365 167.801,96.661 167.314 C 96.957 166.827,97.200 166.098,97.200 165.694 C 97.200 165.290,97.354 164.789,97.542 164.580 C 97.730 164.371,98.198 163.210,98.581 162.000 C 98.964 160.790,99.870 158.540,100.593 157.000 C 101.317 155.460,102.226 153.480,102.613 152.600 C 103.001 151.720,103.427 150.910,103.560 150.800 C 103.692 150.690,104.215 149.790,104.722 148.800 C 105.229 147.810,105.988 146.460,106.410 145.800 C 106.831 145.140,107.476 144.060,107.844 143.400 C 108.694 141.873,112.409 136.458,113.200 135.593 C 113.530 135.232,114.790 133.714,116.000 132.219 C 120.174 127.062,122.074 125.284,122.432 126.200 C 122.603 126.640,122.756 136.260,122.772 147.578 M277.304 129.100 C 278.957 131.025,280.690 133.033,281.155 133.561 C 281.620 134.090,282.003 134.630,282.006 134.761 C 282.010 134.893,282.548 135.630,283.202 136.400 C 284.495 137.922,284.793 138.313,285.400 139.283 C 285.777 139.885,286.949 141.702,289.162 145.116 C 290.681 147.458,294.621 155.200,295.414 157.400 C 295.811 158.500,296.342 159.670,296.594 160.000 C 296.846 160.330,297.913 163.300,298.965 166.600 C 300.017 169.900,300.965 172.870,301.071 173.200 C 301.378 174.154,302.410 179.566,302.807 182.300 C 303.006 183.674,303.344 185.474,303.559 186.300 C 304.199 188.760,304.302 198.200,303.689 198.200 C 303.408 198.200,296.523 191.547,288.389 183.416 L 273.600 168.632 273.600 147.749 C 273.600 129.517,273.705 125.600,274.192 125.600 C 274.251 125.600,275.652 127.175,277.304 129.100 M331.400 134.050 C 325.388 135.990,323.618 141.229,325.539 151.400 C 326.673 157.399,322.977 160.198,319.075 156.296 C 315.970 153.191,315.719 148.466,318.508 145.614 C 319.869 144.222,319.841 143.133,318.383 140.660 C 316.029 136.671,310.633 142.359,310.670 148.791 C 310.736 160.592,320.866 168.412,328.577 162.615 C 332.068 159.990,333.561 152.806,331.639 147.874 C 330.863 145.883,331.078 141.834,332.005 140.995 C 333.812 139.360,338.000 141.489,338.000 144.043 C 338.000 144.433,338.180 144.864,338.400 145.000 C 339.245 145.522,338.817 148.254,337.610 150.040 C 336.331 151.934,336.335 152.175,337.708 155.300 C 338.665 157.478,339.172 157.605,341.226 156.182 C 349.570 150.400,340.944 130.972,331.400 134.050 M55.732 137.272 C 54.933 138.296,53.982 140.570,53.752 142.009 L 53.519 143.465 56.260 144.357 C 58.946 145.232,59.368 145.387,61.800 146.400 C 62.460 146.675,64.348 147.333,65.995 147.863 C 71.596 149.663,72.997 150.566,70.900 151.026 C 70.295 151.158,69.530 151.367,69.200 151.490 C 68.870 151.613,67.790 151.859,66.800 152.036 C 65.810 152.213,63.200 152.807,61.000 153.354 C 58.800 153.902,55.560 154.644,53.800 155.004 C 48.732 156.040,48.320 156.341,47.508 159.598 C 46.652 163.030,46.773 163.355,49.119 163.953 C 51.864 164.652,53.078 165.033,56.200 166.174 C 57.740 166.736,59.333 167.197,59.740 167.198 C 60.146 167.199,61.046 167.440,61.740 167.734 C 64.277 168.810,68.289 170.107,71.200 170.794 C 71.970 170.976,73.811 171.580,75.291 172.138 C 76.772 172.695,78.049 173.027,78.130 172.876 C 78.589 172.014,79.251 168.777,79.136 167.959 C 78.990 166.930,78.841 166.865,69.600 163.779 C 67.290 163.007,65.124 162.224,64.787 162.039 C 64.450 161.853,63.585 161.572,62.866 161.414 C 62.146 161.256,61.626 160.921,61.711 160.668 C 61.930 160.010,66.483 158.568,72.000 157.409 C 73.650 157.062,75.900 156.528,77.000 156.222 C 78.100 155.917,79.810 155.457,80.800 155.202 C 84.014 154.372,84.544 153.946,85.305 151.587 C 86.185 148.856,86.098 148.647,83.730 147.795 C 82.668 147.413,80.900 146.685,79.800 146.178 C 78.700 145.670,76.769 144.887,75.509 144.437 C 74.249 143.986,72.899 143.443,72.509 143.230 C 72.119 143.016,70.270 142.267,68.400 141.565 C 66.530 140.863,64.089 139.875,62.976 139.369 C 61.150 138.539,58.445 137.482,56.772 136.946 C 56.427 136.835,55.959 136.982,55.732 137.272 M236.066 138.676 C 233.855 139.765,233.688 140.350,233.227 148.600 C 232.689 158.217,232.685 166.076,233.215 171.977 C 234.672 188.195,233.832 186.663,241.440 186.974 C 245.519 187.141,246.752 187.413,249.562 188.768 C 250.864 189.396,251.145 192.332,251.394 207.954 C 251.529 216.449,251.818 225.650,252.036 228.400 C 252.253 231.150,252.594 237.540,252.793 242.600 C 253.192 252.746,253.486 254.232,255.349 255.509 C 258.073 257.375,260.695 254.362,260.243 249.885 C 259.608 243.590,259.182 235.733,257.799 204.800 C 257.460 197.210,256.985 187.670,256.743 183.600 C 256.265 175.538,256.485 159.081,257.161 152.400 L 257.586 148.200 256.493 147.302 C 254.639 145.779,252.280 146.630,251.807 148.992 C 251.072 152.665,250.927 153.021,249.986 153.470 C 248.910 153.984,246.981 153.599,242.869 152.049 C 239.490 150.776,239.596 151.022,239.877 145.155 C 240.196 138.481,239.357 137.054,236.066 138.676 M221.518 139.272 C 220.365 140.164,219.938 141.883,220.421 143.678 C 220.658 144.558,220.885 146.925,220.926 148.939 L 221.000 152.600 219.200 153.461 C 213.642 156.122,212.075 156.081,211.057 153.250 L 210.320 151.200 208.460 151.209 C 204.393 151.228,204.207 152.466,205.609 170.200 C 206.219 177.911,206.228 207.878,205.622 214.200 C 205.369 216.840,205.004 220.856,204.812 223.125 C 204.619 225.394,204.276 228.094,204.051 229.125 C 203.826 230.156,203.442 231.900,203.197 233.000 C 202.953 234.100,202.396 237.340,201.958 240.200 C 201.520 243.060,200.910 246.857,200.602 248.638 C 199.750 253.564,200.982 256.400,203.974 256.400 C 205.408 256.400,208.399 254.035,208.400 252.899 C 208.402 252.097,209.654 241.504,209.996 239.400 C 211.213 231.918,212.141 219.172,212.771 201.262 C 213.129 191.108,213.351 190.201,215.627 189.576 C 216.162 189.429,217.770 188.756,219.200 188.080 C 220.717 187.363,222.839 186.736,224.293 186.574 C 228.436 186.115,228.118 187.430,228.160 170.560 C 228.199 154.334,227.315 141.729,226.019 140.039 C 225.231 139.011,222.464 138.539,221.518 139.272 M162.269 141.590 C 160.927 143.186,160.725 144.377,161.116 148.400 C 161.297 150.270,161.371 153.907,161.280 156.483 L 161.115 161.166 159.698 161.634 C 157.947 162.211,150.974 161.935,149.668 161.237 C 148.699 160.718,148.615 157.630,149.415 151.909 C 149.658 150.170,149.582 149.920,148.470 148.809 C 145.049 145.387,141.600 149.879,141.600 157.758 C 141.600 159.676,141.406 162.018,141.168 162.961 C 139.780 168.474,141.681 169.676,151.586 169.552 C 160.680 169.437,161.015 169.503,161.331 171.453 C 162.060 175.943,161.043 176.572,152.116 177.151 C 140.303 177.918,139.922 177.959,138.990 178.570 C 137.095 179.811,136.805 188.114,137.115 232.200 C 137.249 251.217,137.402 252.567,139.653 254.601 C 143.569 258.138,146.066 253.815,144.967 245.400 C 143.236 232.146,142.761 190.279,144.325 188.715 C 144.774 188.266,148.551 190.236,150.239 191.801 C 150.832 192.351,151.470 192.800,151.657 192.800 C 152.132 192.800,155.161 195.580,155.620 196.437 C 156.339 197.781,155.666 198.399,153.457 198.417 C 148.284 198.461,147.216 199.095,147.206 202.126 C 147.195 205.589,147.214 205.599,153.714 205.606 C 160.736 205.614,161.200 205.897,161.200 210.177 C 161.200 212.512,160.688 212.814,156.330 213.051 C 149.371 213.430,147.784 214.333,148.387 217.567 C 148.949 220.576,150.930 221.439,156.183 220.963 C 158.620 220.742,159.363 220.815,160.188 221.355 L 161.200 222.018 161.203 232.709 C 161.204 238.589,160.992 246.010,160.732 249.200 C 160.165 256.125,160.555 257.735,163.445 260.399 C 165.350 262.155,166.169 262.333,167.442 261.269 C 168.811 260.126,168.990 257.578,168.995 239.266 C 169.001 218.625,168.328 220.665,175.268 220.258 C 180.181 219.970,181.200 219.474,181.200 217.369 C 181.200 216.334,180.034 213.572,179.400 213.106 C 179.180 212.944,176.891 212.809,174.314 212.806 C 168.939 212.799,168.800 212.711,168.800 209.315 C 168.800 205.880,169.256 205.600,174.842 205.600 L 179.639 205.600 180.411 203.900 C 182.079 200.226,180.840 197.200,177.668 197.200 C 175.057 197.200,174.701 196.191,176.600 194.180 C 177.195 193.550,181.615 190.599,183.746 189.409 L 185.608 188.370 186.028 189.473 C 187.351 192.952,186.833 239.619,185.387 247.331 C 185.000 249.390,185.878 253.107,186.877 253.641 C 188.497 254.508,192.064 252.936,192.786 251.038 C 193.584 248.937,194.124 215.319,193.621 199.000 C 192.902 175.673,194.008 177.354,179.056 176.858 C 168.944 176.522,169.200 176.630,169.200 172.697 C 169.200 168.414,169.155 168.432,180.110 168.380 C 188.566 168.340,188.710 168.303,190.034 165.833 C 190.953 164.118,191.014 161.634,190.204 158.964 C 189.877 157.884,189.607 155.879,189.604 154.508 C 189.596 149.486,187.114 146.630,184.136 148.215 C 182.519 149.075,182.258 150.395,182.604 155.962 C 182.935 161.282,182.852 161.409,178.671 161.976 C 168.701 163.327,168.800 163.431,168.800 151.565 L 168.800 142.362 167.742 141.381 C 166.148 139.904,163.606 140.002,162.269 141.590 M243.636 158.785 C 245.266 159.217,247.410 159.821,248.400 160.128 L 250.200 160.685 250.319 163.379 C 250.500 167.472,249.395 167.923,242.924 166.394 C 239.367 165.553,237.580 161.833,239.400 159.055 C 240.227 157.795,239.961 157.812,243.636 158.785 M222.215 159.625 C 222.693 160.397,222.600 164.677,222.093 165.288 C 221.647 165.825,219.594 166.465,214.948 167.517 C 212.681 168.030,211.078 164.870,212.376 162.445 C 213.289 160.738,221.457 158.397,222.215 159.625 M348.000 169.407 C 347.670 169.479,345.240 169.831,342.600 170.189 C 337.794 170.840,333.845 171.528,328.600 172.625 C 327.060 172.947,325.229 173.208,324.531 173.205 C 322.940 173.199,319.162 174.017,318.513 174.508 C 317.946 174.937,318.202 178.062,318.924 179.547 C 319.518 180.765,321.891 180.632,332.200 178.800 C 337.498 177.858,339.133 177.592,342.200 177.170 C 352.147 175.804,351.421 176.223,350.929 172.135 C 350.585 169.273,350.211 168.925,348.000 169.407 M245.800 172.697 C 249.710 174.128,250.388 174.972,250.388 178.400 C 250.388 182.028,249.334 182.671,244.981 181.696 C 240.353 180.660,239.904 180.101,239.398 174.755 C 238.990 170.436,239.325 170.328,245.800 172.697 M223.095 175.600 C 223.219 179.993,222.092 181.410,217.239 182.964 C 213.534 184.151,212.816 183.529,212.805 179.126 C 212.797 175.513,214.616 173.248,217.575 173.187 C 217.919 173.180,218.560 172.902,219.000 172.570 C 219.487 172.201,220.426 172.011,221.400 172.082 L 223.000 172.200 223.095 175.600 M76.180 178.318 C 75.971 178.493,74.810 178.926,73.600 179.280 C 67.685 181.013,65.366 181.744,65.000 181.990 C 64.780 182.138,63.430 182.584,62.000 182.981 C 60.570 183.378,57.960 184.202,56.200 184.811 C 54.440 185.421,51.830 186.241,50.400 186.634 C 48.970 187.027,47.445 187.585,47.011 187.874 C 46.577 188.163,45.816 188.400,45.320 188.400 C 43.800 188.400,43.148 189.935,43.282 193.198 L 43.400 196.081 45.885 197.402 C 47.252 198.128,49.232 199.040,50.285 199.429 C 51.338 199.818,52.484 200.375,52.831 200.668 C 53.179 200.961,53.611 201.200,53.793 201.200 C 53.974 201.200,55.040 201.630,56.161 202.154 C 62.068 204.920,64.434 206.000,64.585 206.000 C 64.795 206.000,72.357 209.480,73.295 210.009 C 73.677 210.224,74.467 210.400,75.052 210.400 L 76.114 210.400 75.857 207.941 C 75.716 206.589,75.600 205.147,75.600 204.736 C 75.600 204.231,74.985 203.715,73.700 203.141 C 67.827 200.517,68.298 200.891,68.546 199.053 C 68.668 198.144,68.889 195.181,69.037 192.470 C 69.342 186.883,68.992 187.369,73.561 186.176 C 76.215 185.483,75.869 185.938,76.681 182.073 C 77.346 178.911,77.158 177.500,76.180 178.318 M180.664 183.907 C 181.497 184.437,179.903 185.829,177.385 186.770 C 172.423 188.624,170.228 190.087,168.963 192.383 C 166.416 197.001,162.638 196.389,159.352 190.826 C 158.553 189.474,155.579 187.516,153.347 186.873 C 150.156 185.953,150.293 184.692,153.657 184.030 C 155.802 183.609,180.021 183.498,180.664 183.907 M347.941 186.081 C 347.909 186.146,347.684 188.270,347.441 190.800 L 347.000 195.400 334.073 195.420 C 319.615 195.443,320.413 195.269,320.412 198.400 C 320.410 202.223,319.111 201.861,334.034 202.195 L 347.200 202.489 347.200 206.612 C 347.200 212.050,347.174 212.000,350.029 212.000 C 353.180 212.000,353.064 212.529,353.030 198.400 L 353.000 186.200 350.500 186.081 C 349.125 186.015,347.974 186.015,347.941 186.081 M63.200 193.613 C 63.200 198.943,63.775 198.867,54.486 194.770 C 52.113 193.723,51.872 192.837,53.804 192.258 C 54.462 192.060,55.630 191.665,56.400 191.378 C 63.286 188.817,63.200 188.789,63.200 193.613 M233.394 192.507 C 231.346 193.653,232.123 197.309,234.509 197.757 C 237.118 198.246,237.068 203.389,234.450 203.822 C 232.230 204.190,232.016 204.306,231.615 205.362 C 230.860 207.347,231.524 209.051,233.346 209.801 C 234.256 210.175,235.270 210.618,235.600 210.784 C 236.117 211.044,236.241 214.151,236.496 233.243 C 236.814 256.981,236.889 257.808,238.824 258.900 C 242.606 261.034,245.508 257.258,244.034 252.119 C 243.547 250.421,242.705 213.790,243.111 212.000 C 243.353 210.936,243.663 210.567,244.402 210.461 C 245.827 210.257,246.800 208.915,246.800 207.154 C 246.800 205.456,245.543 203.894,244.498 204.294 C 243.525 204.668,242.800 203.240,242.800 200.952 C 242.800 198.808,243.463 197.600,244.638 197.600 C 245.947 197.600,246.468 193.739,245.300 192.703 C 244.509 192.002,234.589 191.839,233.394 192.507 M223.708 192.819 C 218.634 193.070,217.778 193.372,216.760 195.275 C 216.206 196.309,217.481 198.684,218.761 199.003 C 220.635 199.471,221.047 200.159,220.813 202.432 L 220.600 204.498 218.079 205.270 C 215.121 206.176,214.803 206.711,215.890 208.947 C 216.706 210.628,217.663 211.333,219.739 211.786 L 220.878 212.035 220.655 220.717 C 220.425 229.673,220.041 234.225,219.284 237.000 C 219.043 237.880,218.560 239.950,218.209 241.600 C 216.976 247.406,216.301 250.214,215.803 251.600 C 212.971 259.499,213.733 263.436,218.036 263.126 L 219.775 263.000 221.142 258.800 C 221.894 256.490,222.650 254.311,222.822 253.958 C 222.994 253.604,223.517 251.354,223.983 248.958 C 224.450 246.561,225.010 243.970,225.227 243.200 C 226.796 237.651,227.157 233.754,227.179 222.116 L 227.200 211.632 228.263 210.647 C 229.736 209.281,229.696 205.777,228.190 204.152 C 226.624 202.461,226.840 200.765,228.833 199.110 C 230.316 197.878,230.467 197.581,230.467 195.892 C 230.467 192.678,230.083 192.504,223.708 192.819 M107.589 216.195 L 122.600 231.191 122.710 251.933 C 122.771 263.341,122.671 273.078,122.489 273.572 C 122.134 274.531,117.840 270.015,113.007 263.600 C 111.929 262.170,110.570 260.370,109.986 259.600 C 109.402 258.830,108.604 257.570,108.214 256.800 C 107.823 256.030,107.261 255.123,106.965 254.784 C 105.480 253.083,100.158 242.251,98.620 237.800 C 98.240 236.700,97.765 235.487,97.565 235.105 C 97.364 234.723,97.200 234.088,97.200 233.694 C 97.200 233.300,96.966 232.623,96.680 232.189 C 96.394 231.755,95.844 230.050,95.458 228.400 C 95.072 226.750,94.514 224.410,94.217 223.200 C 92.909 217.863,92.708 216.684,92.174 211.200 C 91.464 203.899,91.441 201.200,92.089 201.200 C 92.358 201.200,99.333 207.948,107.589 216.195 M304.259 201.808 C 304.745 203.076,303.439 215.761,302.386 220.000 C 302.194 220.770,301.640 223.290,301.153 225.600 C 300.666 227.910,300.138 229.980,299.979 230.200 C 299.821 230.420,299.037 232.656,298.238 235.168 C 297.439 237.681,296.629 239.931,296.438 240.168 C 296.247 240.406,295.503 242.040,294.785 243.800 C 294.067 245.560,293.345 247.180,293.182 247.400 C 293.018 247.620,292.212 249.060,291.390 250.600 C 287.068 258.696,275.303 274.205,274.064 273.440 C 273.722 273.228,273.600 267.640,273.600 252.106 L 273.600 231.059 288.500 216.136 C 303.746 200.866,303.858 200.764,304.259 201.808 M73.000 216.000 C 72.560 216.189,71.603 216.356,70.874 216.372 C 70.144 216.387,69.227 216.572,68.835 216.781 C 68.443 216.991,67.059 217.351,65.761 217.580 C 57.838 218.981,52.962 219.941,51.400 220.407 C 50.740 220.603,49.057 220.945,47.660 221.166 C 44.371 221.687,43.947 222.056,44.228 224.147 C 44.618 227.046,44.794 227.569,45.510 227.952 C 46.211 228.327,46.664 228.262,52.000 227.026 C 63.129 224.448,65.600 224.040,65.600 224.783 C 65.600 225.134,57.335 233.341,51.300 238.984 C 48.546 241.559,48.477 241.797,49.463 245.310 C 50.355 248.488,51.014 248.548,59.400 246.214 C 61.352 245.671,63.694 245.147,70.200 243.797 C 71.960 243.432,73.850 242.965,74.400 242.761 C 74.950 242.556,76.390 242.226,77.600 242.027 C 82.283 241.258,82.831 240.469,81.190 236.854 C 80.469 235.264,80.299 235.131,79.299 235.371 C 78.694 235.516,77.390 235.803,76.400 236.009 C 75.410 236.215,73.700 236.640,72.600 236.953 C 71.500 237.266,68.800 237.835,66.600 238.218 C 64.400 238.601,62.296 239.069,61.924 239.258 C 59.481 240.502,61.770 237.728,69.007 230.675 L 77.292 222.600 77.073 219.937 C 76.741 215.922,75.646 214.863,73.000 216.000 M349.200 218.767 C 348.210 219.147,346.770 219.746,346.000 220.096 C 343.069 221.432,340.684 222.400,340.324 222.400 C 340.119 222.400,338.969 222.864,337.769 223.432 C 332.161 226.085,332.111 226.089,324.400 224.585 C 318.183 223.373,318.468 223.369,318.189 224.658 C 318.054 225.286,317.739 226.667,317.489 227.726 C 316.930 230.101,316.801 230.011,322.068 230.926 C 329.347 232.192,330.071 232.389,331.347 233.452 C 332.586 234.484,338.022 239.471,343.153 244.281 C 346.271 247.205,346.562 247.123,347.592 243.031 C 348.371 239.937,348.789 240.561,342.086 234.800 C 336.980 230.411,336.970 230.307,341.519 228.816 C 342.994 228.333,344.740 227.700,345.400 227.410 C 346.060 227.119,347.568 226.548,348.751 226.141 C 351.407 225.226,351.841 224.562,352.180 220.900 C 352.487 217.580,352.419 217.531,349.200 218.767 M165.780 275.575 C 167.862 276.072,197.290 305.270,196.503 306.057 C 196.149 306.411,194.860 306.408,191.119 306.045 C 188.413 305.783,185.030 305.471,183.600 305.353 C 182.170 305.235,180.433 304.964,179.740 304.751 C 179.047 304.539,177.607 304.199,176.540 303.997 C 171.660 303.072,166.172 301.530,162.200 299.965 C 161.760 299.792,160.950 299.527,160.400 299.377 C 157.950 298.709,147.988 293.844,143.405 291.078 C 139.634 288.802,131.300 282.869,129.683 281.309 C 129.279 280.919,127.925 279.710,126.674 278.621 C 122.639 275.111,121.612 275.307,144.300 275.248 C 155.594 275.219,164.883 275.360,165.780 275.575 M272.400 275.423 C 272.400 276.133,264.870 282.622,259.600 286.454 C 249.650 293.689,234.000 300.993,224.600 302.789 C 222.822 303.129,220.030 303.795,217.000 304.603 C 215.900 304.897,213.470 305.250,211.600 305.388 C 209.730 305.526,206.460 305.828,204.333 306.058 C 197.606 306.786,197.048 307.665,214.247 290.438 L 229.460 275.200 250.930 275.200 C 262.738 275.200,272.400 275.300,272.400 275.423 M89.341 284.037 C 83.427 285.750,84.811 294.800,90.986 294.800 C 94.774 294.800,97.503 291.271,96.299 287.931 C 95.062 284.503,92.562 283.104,89.341 284.037 M303.203 284.064 C 299.114 285.262,297.963 290.372,301.096 293.415 C 304.964 297.171,311.225 293.524,310.209 288.106 C 309.938 286.665,307.664 284.005,306.693 283.995 C 306.422 283.992,305.840 283.914,305.400 283.822 C 304.960 283.729,303.971 283.838,303.203 284.064 M142.530 314.309 C 141.866 314.734,140.284 319.121,140.547 319.807 C 140.667 320.120,141.223 320.491,141.783 320.631 C 142.936 320.921,143.143 322.119,142.262 323.411 C 141.966 323.845,141.620 324.560,141.493 325.000 C 141.032 326.593,138.776 332.549,138.474 332.969 C 138.304 333.206,137.840 334.390,137.442 335.600 C 137.044 336.810,136.456 338.392,136.134 339.115 C 135.448 340.656,135.555 341.993,136.400 342.426 C 141.605 345.094,141.267 345.369,145.013 335.400 C 146.253 332.100,147.546 328.770,147.885 328.000 C 148.624 326.325,151.600 317.975,151.600 317.578 C 151.600 317.271,148.815 316.026,146.000 315.073 C 145.010 314.739,143.930 314.362,143.600 314.237 C 143.270 314.111,142.788 314.144,142.530 314.309 M250.037 315.633 C 248.628 315.816,247.287 316.153,247.057 316.383 C 246.828 316.612,246.388 316.800,246.080 316.800 C 245.773 316.800,244.954 317.062,244.260 317.382 C 242.436 318.225,239.505 319.187,238.744 319.194 C 237.704 319.203,232.552 321.884,231.443 322.993 C 228.543 325.894,230.713 335.466,234.703 337.368 C 237.330 338.621,244.983 337.036,251.000 333.993 C 253.441 332.758,254.318 332.802,253.976 334.143 C 253.344 336.617,252.322 339.021,251.369 340.273 C 250.836 340.974,250.400 341.674,250.400 341.829 C 250.400 341.984,249.860 342.989,249.200 344.062 C 246.993 347.648,247.225 347.748,252.671 345.553 C 261.164 342.129,263.460 332.840,258.939 320.200 C 257.917 317.344,255.091 314.988,253.003 315.251 C 252.781 315.279,251.447 315.451,250.037 315.633 M251.815 322.417 C 252.471 323.142,253.578 325.685,253.594 326.505 C 253.600 326.801,251.313 327.897,247.600 329.378 C 246.610 329.773,245.440 330.239,245.000 330.415 C 239.924 332.440,237.791 331.972,237.353 328.738 C 237.046 326.461,237.596 325.867,241.048 324.749 C 242.342 324.330,243.670 323.839,244.000 323.658 C 244.836 323.200,248.695 322.064,250.838 321.646 C 250.969 321.621,251.409 321.968,251.815 322.417 M165.416 324.797 C 163.453 326.079,162.767 327.962,162.514 332.762 L 162.288 337.045 163.619 338.561 C 165.555 340.765,172.893 342.774,179.076 342.792 C 180.784 342.797,182.067 342.985,182.234 343.255 C 182.770 344.122,178.367 347.682,172.226 351.347 C 169.380 353.045,169.569 353.199,175.512 354.010 C 179.769 354.591,179.953 354.541,183.495 351.848 C 189.932 346.953,192.401 341.809,192.544 333.000 C 192.579 330.814,191.489 328.072,190.437 327.702 C 190.087 327.579,189.530 327.262,189.200 326.997 C 186.605 324.915,167.885 323.184,165.416 324.797 M208.212 325.660 C 205.525 326.184,205.268 326.470,205.473 328.707 C 205.795 332.212,205.864 332.340,207.502 332.476 L 209.000 332.600 209.478 336.600 C 209.740 338.800,210.154 342.850,210.397 345.600 C 210.640 348.350,210.972 351.410,211.135 352.400 L 211.432 354.200 214.366 354.142 C 217.891 354.073,218.060 353.889,217.781 350.400 C 217.132 342.296,216.283 334.040,215.683 330.000 L 215.000 325.400 212.600 325.336 C 211.280 325.301,209.305 325.447,208.212 325.660 M176.800 330.265 C 177.130 330.373,178.915 330.709,180.766 331.011 C 184.854 331.679,185.321 332.074,185.259 334.819 C 185.203 337.297,184.662 338.107,183.236 337.846 C 182.666 337.741,180.130 337.432,177.600 337.157 C 172.257 336.578,169.739 335.694,169.383 334.273 C 169.034 332.886,169.878 330.090,170.708 329.883 C 171.489 329.688,175.883 329.963,176.800 330.265 " stroke="none" fill="#6d275d" fill-rule="evenodd"></path><path id="path1" d="M0.000 200.000 L 0.000 400.000 200.000 400.000 L 400.000 400.000 400.000 200.000 L 400.000 0.000 200.000 0.000 L 0.000 0.000 0.000 200.000 M209.600 27.213 C 213.836 27.588,222.567 28.555,227.000 29.140 C 228.320 29.315,230.120 29.656,231.000 29.899 C 231.880 30.141,234.040 30.640,235.800 31.007 C 240.050 31.893,243.487 32.768,245.200 33.400 C 245.970 33.684,247.770 34.225,249.200 34.601 C 250.630 34.978,253.240 35.820,255.000 36.473 C 256.760 37.125,258.740 37.847,259.400 38.075 C 265.108 40.053,277.964 46.105,283.074 49.221 C 283.913 49.732,285.230 50.498,286.000 50.923 C 286.770 51.347,288.174 52.213,289.120 52.847 C 290.066 53.481,290.942 54.000,291.066 54.000 C 291.630 54.000,304.863 63.772,309.370 67.517 C 313.268 70.756,326.892 84.256,329.200 87.166 C 329.970 88.137,331.157 89.577,331.839 90.366 C 337.023 96.369,345.291 108.667,350.014 117.400 C 351.399 119.961,355.439 128.068,355.994 129.400 C 356.178 129.840,356.680 131.010,357.111 132.000 C 357.542 132.990,358.166 134.430,358.499 135.200 C 358.832 135.970,359.420 137.590,359.805 138.800 C 360.190 140.010,360.680 141.220,360.892 141.489 C 361.105 141.757,361.424 142.567,361.601 143.289 C 361.779 144.010,362.493 146.400,363.189 148.600 C 364.647 153.210,365.612 156.868,366.565 161.400 C 366.935 163.160,367.491 165.500,367.799 166.600 C 368.108 167.700,368.649 171.030,369.003 174.000 C 369.356 176.970,369.907 181.380,370.227 183.800 C 371.045 189.981,371.025 209.296,370.194 216.000 C 368.343 230.932,368.306 231.162,366.791 237.200 C 366.598 237.970,366.042 240.400,365.556 242.600 C 365.069 244.800,364.531 246.870,364.359 247.200 C 363.862 248.154,362.400 253.264,362.400 254.044 C 362.400 254.434,362.220 254.864,362.000 255.000 C 361.780 255.136,361.599 255.552,361.598 255.924 C 361.596 256.296,361.347 257.075,361.045 257.655 C 360.742 258.235,360.181 259.675,359.799 260.855 C 359.033 263.220,358.665 264.122,356.839 268.101 C 356.158 269.587,355.600 270.974,355.600 271.183 C 355.600 271.393,355.100 272.428,354.489 273.482 C 353.877 274.537,353.034 276.210,352.614 277.200 C 352.194 278.190,351.649 279.270,351.403 279.600 C 351.158 279.930,350.393 281.306,349.704 282.658 C 342.128 297.515,324.275 319.670,311.224 330.409 C 310.028 331.394,308.309 332.830,307.405 333.600 C 301.124 338.952,289.621 346.750,281.075 351.449 C 277.795 353.253,268.118 358.000,267.716 358.002 C 267.542 358.002,266.320 358.542,265.000 359.200 C 263.680 359.858,262.296 360.398,261.924 360.398 C 261.552 360.399,261.148 360.560,261.027 360.756 C 260.906 360.951,260.311 361.233,259.704 361.382 C 259.097 361.530,257.666 362.090,256.525 362.626 C 255.383 363.162,254.192 363.600,253.877 363.600 C 253.246 363.600,248.667 364.991,247.400 365.568 C 246.960 365.768,245.790 366.137,244.800 366.387 C 240.120 367.570,238.052 368.058,236.301 368.390 C 235.257 368.589,234.239 368.853,234.039 368.976 C 233.511 369.302,224.538 370.800,223.113 370.800 C 222.449 370.800,220.442 371.067,218.653 371.393 C 207.972 373.339,190.598 373.345,177.000 371.407 C 174.800 371.093,171.020 370.555,168.600 370.210 C 164.445 369.618,162.120 369.114,157.365 367.774 C 156.246 367.458,154.952 367.200,154.491 367.200 C 154.029 367.200,151.525 366.504,148.926 365.652 C 146.327 364.801,143.210 363.795,142.000 363.417 C 140.790 363.039,139.170 362.461,138.400 362.132 C 137.630 361.802,136.409 361.278,135.686 360.967 C 134.964 360.655,134.106 360.400,133.779 360.400 C 133.452 360.400,132.173 359.860,130.936 359.200 C 129.699 358.540,128.525 358.000,128.327 358.000 C 127.278 358.000,114.571 351.379,108.863 347.858 C 107.028 346.726,105.228 345.616,104.863 345.392 C 100.255 342.555,92.789 337.066,87.800 332.845 C 85.820 331.170,83.660 329.359,83.000 328.819 C 78.944 325.504,66.134 311.909,62.600 307.169 C 62.160 306.579,60.788 304.757,59.551 303.121 C 58.314 301.484,56.845 299.422,56.286 298.537 C 55.728 297.652,55.000 296.657,54.670 296.327 C 54.340 295.997,53.739 295.113,53.335 294.363 C 52.931 293.613,52.126 292.370,51.546 291.600 C 50.966 290.830,50.066 289.411,49.546 288.446 C 49.026 287.481,48.413 286.401,48.185 286.046 C 47.956 285.691,47.190 284.320,46.482 283.000 C 45.773 281.680,45.018 280.330,44.804 280.000 C 44.480 279.503,40.440 270.996,39.199 268.200 C 38.407 266.416,37.301 263.730,36.893 262.600 C 36.655 261.940,35.920 259.960,35.260 258.200 C 34.600 256.440,33.763 253.920,33.401 252.600 C 33.038 251.280,32.503 249.660,32.213 249.000 C 31.684 247.799,29.842 240.588,29.197 237.200 C 29.009 236.210,28.677 234.860,28.460 234.200 C 28.243 233.540,27.771 230.570,27.411 227.600 C 27.050 224.630,26.593 221.460,26.394 220.556 C 24.662 212.677,24.663 188.690,26.395 178.801 C 26.607 177.591,27.064 174.530,27.409 172.000 C 28.022 167.521,28.738 163.877,29.806 159.800 C 30.094 158.700,30.639 156.450,31.017 154.800 C 31.395 153.150,31.938 151.260,32.223 150.600 C 32.508 149.940,33.041 148.320,33.408 147.000 C 34.258 143.942,35.172 141.190,35.625 140.322 C 35.820 139.949,36.410 138.419,36.935 136.922 C 37.461 135.425,38.305 133.300,38.810 132.200 C 41.604 126.122,44.443 120.125,44.776 119.600 C 44.986 119.270,45.595 118.190,46.130 117.200 C 46.666 116.210,47.481 114.770,47.942 114.000 C 48.402 113.230,49.150 111.920,49.604 111.089 C 51.074 108.392,59.372 96.302,61.600 93.610 C 61.930 93.211,63.190 91.660,64.400 90.163 C 68.512 85.076,78.052 75.151,83.011 70.800 C 91.693 63.183,98.480 58.034,104.573 54.440 C 105.468 53.913,106.290 53.364,106.400 53.220 C 106.678 52.858,110.753 50.400,111.075 50.400 C 111.219 50.400,111.621 50.150,111.969 49.844 C 112.830 49.086,125.641 42.526,128.165 41.550 C 130.701 40.570,132.702 39.710,134.000 39.042 C 134.550 38.759,136.080 38.204,137.400 37.809 C 138.720 37.413,139.980 36.961,140.200 36.804 C 141.316 36.007,154.245 32.263,160.200 31.012 C 161.960 30.642,164.390 30.096,165.600 29.799 C 168.919 28.984,174.430 28.293,186.200 27.217 C 190.904 26.786,204.760 26.784,209.600 27.213 M186.800 36.043 C 183.830 36.224,180.500 36.570,179.400 36.814 C 178.300 37.058,175.870 37.425,174.000 37.630 C 165.101 38.606,145.289 43.696,140.125 46.332 C 138.724 47.047,136.369 48.000,136.002 48.000 C 135.390 48.000,121.187 54.769,119.200 56.008 C 118.870 56.213,116.890 57.380,114.800 58.600 C 112.710 59.820,110.785 60.949,110.521 61.109 C 98.548 68.387,79.574 85.192,71.400 95.760 C 70.740 96.613,70.013 97.511,69.784 97.756 C 68.083 99.574,57.200 115.200,57.200 115.825 C 57.200 115.902,56.635 116.918,55.945 118.082 C 54.786 120.037,51.534 126.064,50.833 127.558 C 47.845 133.919,47.631 134.402,46.387 137.600 C 45.917 138.810,45.368 140.110,45.169 140.489 C 43.249 144.140,38.240 161.549,37.023 168.800 C 36.672 170.890,36.129 174.040,35.816 175.800 C 33.725 187.573,33.607 216.148,35.622 222.637 C 35.833 223.317,36.177 225.117,36.386 226.637 C 37.114 231.934,38.577 239.192,39.201 240.600 C 39.396 241.040,39.929 242.930,40.387 244.800 C 40.844 246.670,41.383 248.560,41.585 249.000 C 41.786 249.440,42.578 251.690,43.344 254.000 C 44.755 258.254,46.463 262.558,48.185 266.200 C 48.705 267.300,49.431 268.920,49.799 269.800 C 50.166 270.680,50.602 271.670,50.767 272.000 C 51.498 273.461,54.540 279.038,54.803 279.400 C 54.963 279.620,55.687 280.880,56.411 282.200 C 57.727 284.599,59.747 287.797,63.275 293.063 C 68.659 301.101,79.970 314.016,87.749 321.006 C 89.553 322.627,94.504 326.814,95.783 327.800 C 96.639 328.460,97.893 329.456,98.569 330.013 C 101.178 332.160,106.964 336.138,112.800 339.798 C 115.258 341.340,119.736 343.877,121.800 344.898 C 122.900 345.443,125.240 346.610,127.000 347.492 C 128.760 348.374,131.820 349.765,133.800 350.581 C 135.780 351.398,137.758 352.260,138.196 352.497 C 139.120 352.996,145.330 355.150,146.800 355.482 C 147.350 355.606,148.002 355.866,148.248 356.060 C 148.495 356.254,150.205 356.773,152.048 357.213 C 153.892 357.653,156.210 358.270,157.200 358.583 C 159.533 359.320,163.644 360.212,168.400 361.012 C 170.490 361.363,172.830 361.808,173.600 362.001 C 177.847 363.063,187.436 363.709,198.400 363.672 C 209.001 363.636,212.071 363.447,219.400 362.379 C 220.940 362.155,223.370 361.801,224.800 361.593 C 226.230 361.385,228.210 361.037,229.200 360.819 C 230.190 360.602,231.900 360.254,233.000 360.045 C 234.100 359.836,235.990 359.395,237.200 359.064 C 238.410 358.734,240.533 358.179,241.919 357.832 C 244.935 357.076,256.187 353.320,257.600 352.597 C 258.150 352.316,259.410 351.772,260.400 351.389 C 261.390 351.005,262.767 350.446,263.460 350.146 C 264.154 349.846,264.919 349.600,265.160 349.600 C 265.402 349.600,265.600 349.420,265.600 349.200 C 265.600 348.980,265.825 348.796,266.100 348.791 C 266.652 348.781,275.764 344.180,279.458 342.047 C 284.024 339.410,293.177 333.385,297.000 330.499 C 303.288 325.753,313.402 316.407,319.183 310.000 C 319.878 309.230,321.024 307.970,321.729 307.200 C 322.435 306.430,324.089 304.450,325.406 302.800 C 326.723 301.150,328.032 299.555,328.317 299.255 C 328.601 298.955,329.456 297.785,330.217 296.655 C 330.978 295.525,332.726 292.942,334.100 290.917 C 337.171 286.392,339.170 283.223,340.610 280.600 C 341.213 279.500,341.838 278.420,341.999 278.200 C 342.435 277.602,345.789 270.917,346.915 268.400 C 348.936 263.884,349.508 262.555,350.182 260.800 C 350.562 259.810,351.119 258.460,351.419 257.800 C 351.719 257.140,352.257 255.610,352.614 254.400 C 352.972 253.190,353.433 251.779,353.640 251.264 C 354.391 249.394,355.513 245.738,356.178 243.000 C 356.552 241.460,357.112 239.300,357.423 238.200 C 358.453 234.553,359.133 231.056,359.794 226.000 C 360.154 223.250,360.627 220.419,360.847 219.709 C 362.271 215.098,362.275 184.510,360.852 179.904 C 360.630 179.187,360.253 177.070,360.014 175.200 C 359.263 169.330,358.836 166.652,358.386 165.000 C 358.147 164.120,357.703 162.500,357.399 161.400 C 357.095 160.300,356.545 158.050,356.177 156.400 C 355.809 154.750,355.332 152.950,355.117 152.400 C 354.902 151.850,354.100 149.510,353.336 147.200 C 352.572 144.890,351.705 142.460,351.410 141.800 C 351.115 141.140,350.563 139.790,350.183 138.800 C 348.969 135.639,347.510 132.319,345.437 128.000 C 343.817 124.626,339.787 117.314,338.050 114.600 C 337.487 113.720,336.684 112.370,336.265 111.600 C 335.846 110.830,335.255 110.056,334.952 109.880 C 334.648 109.704,334.400 109.368,334.400 109.134 C 334.400 108.899,333.725 107.794,332.900 106.678 C 332.075 105.562,331.130 104.257,330.800 103.778 C 323.449 93.110,309.504 78.651,298.567 70.357 C 293.312 66.372,289.527 63.647,288.800 63.324 C 288.470 63.178,288.110 62.944,288.000 62.805 C 287.890 62.665,286.630 61.858,285.200 61.011 C 283.770 60.164,282.351 59.275,282.046 59.035 C 281.247 58.407,276.567 55.804,274.000 54.561 C 272.790 53.974,271.710 53.376,271.600 53.232 C 271.490 53.087,270.230 52.457,268.800 51.831 C 267.370 51.206,264.891 50.088,263.291 49.347 C 261.691 48.606,260.152 48.000,259.871 48.000 C 259.590 48.000,259.189 47.856,258.980 47.680 C 256.624 45.696,233.741 39.146,225.200 38.011 C 223.330 37.762,220.000 37.298,217.800 36.979 C 208.879 35.685,198.073 35.359,186.800 36.043 M202.341 47.100 C 203.208 48.585,204.353 50.610,204.885 51.600 C 206.343 54.312,208.802 58.753,210.088 61.000 C 210.718 62.100,211.423 63.495,211.656 64.100 C 212.807 67.098,213.987 64.808,213.996 59.557 C 214.003 54.948,214.855 46.220,215.347 45.705 C 215.793 45.237,220.854 45.520,221.376 46.043 C 221.479 46.146,221.298 49.463,220.974 53.415 C 220.650 57.367,220.201 63.014,219.976 65.964 C 219.751 68.915,219.446 71.525,219.298 71.764 C 219.149 72.004,218.932 73.550,218.814 75.200 L 218.600 78.200 216.735 78.320 C 213.377 78.537,212.365 78.030,210.859 75.375 C 208.134 70.572,204.174 63.456,201.813 59.123 C 201.053 57.727,200.399 56.953,200.124 57.123 C 199.570 57.466,198.800 66.098,198.800 71.973 C 198.800 77.109,198.675 77.294,195.334 77.121 L 193.000 77.000 193.033 61.065 C 193.071 42.762,192.629 44.415,197.482 44.406 L 200.765 44.400 202.341 47.100 M178.923 48.000 C 179.101 49.210,179.400 50.830,179.587 51.600 C 179.938 53.037,181.202 58.943,181.969 62.731 C 184.085 73.180,181.389 78.335,172.965 79.948 C 162.344 81.983,158.653 79.133,156.193 67.000 C 155.836 65.240,155.295 62.900,154.989 61.800 C 152.326 52.207,152.374 50.854,155.400 50.263 C 156.060 50.135,157.185 49.912,157.900 49.769 C 158.615 49.626,159.200 49.600,159.200 49.712 C 159.200 50.308,160.501 56.481,160.990 58.200 C 161.302 59.300,161.748 61.190,161.981 62.400 C 163.769 71.687,164.254 72.884,166.759 74.179 C 170.190 75.953,175.395 73.665,176.193 70.032 C 176.425 68.976,175.650 64.485,174.186 58.400 C 173.842 56.970,173.410 54.990,173.226 54.000 C 173.041 53.010,172.678 51.152,172.420 49.872 C 171.765 46.634,172.972 45.542,177.000 45.727 L 178.600 45.800 178.923 48.000 M238.875 49.844 C 240.627 50.741,240.610 51.268,238.608 58.000 C 238.249 59.210,237.784 61.100,237.575 62.200 C 237.367 63.300,236.830 65.550,236.382 67.200 C 235.121 71.842,234.890 72.754,234.050 76.400 C 232.691 82.299,232.353 82.701,229.854 81.398 C 229.224 81.069,228.363 80.800,227.942 80.800 C 226.480 80.800,226.751 76.541,228.604 70.400 C 229.335 67.977,230.188 64.468,230.987 60.600 C 231.350 58.840,231.835 56.860,232.064 56.200 C 232.293 55.540,232.561 54.550,232.660 54.000 C 233.597 48.749,234.957 47.840,238.875 49.844 M254.134 54.699 C 255.279 55.063,256.182 55.623,256.348 56.070 C 256.743 57.139,255.173 73.056,254.381 76.000 C 253.910 77.751,253.887 80.400,254.342 80.400 C 254.530 80.400,258.432 76.530,263.014 71.800 C 272.319 62.194,271.496 62.695,274.779 64.619 C 277.929 66.466,277.991 66.284,272.300 71.877 C 251.215 92.598,253.526 90.922,249.295 88.556 L 246.713 87.112 246.982 83.656 C 247.131 81.755,247.419 79.120,247.623 77.800 C 247.827 76.480,248.000 74.140,248.007 72.600 C 248.013 71.060,248.190 69.080,248.400 68.200 C 248.609 67.320,248.970 63.817,249.203 60.416 C 249.477 56.405,249.797 54.123,250.113 53.925 C 250.615 53.609,250.854 53.655,254.134 54.699 M127.336 64.424 C 127.990 65.621,129.262 67.973,130.163 69.651 C 131.063 71.328,132.762 74.478,133.938 76.651 C 140.582 88.926,141.298 90.367,141.061 90.986 C 140.809 91.641,137.315 93.600,136.399 93.600 C 135.533 93.600,135.258 93.259,133.493 90.000 C 132.718 88.570,131.325 86.050,130.397 84.400 C 128.001 80.137,122.900 70.978,121.546 68.508 C 119.905 65.512,120.008 65.043,122.577 63.828 C 123.774 63.262,124.871 62.609,125.014 62.378 C 125.475 61.632,126.121 62.202,127.336 64.424 M288.840 73.300 C 290.020 74.235,291.273 75.270,291.624 75.600 C 291.975 75.930,293.491 77.190,294.993 78.400 C 296.494 79.610,298.474 81.230,299.393 82.000 C 300.312 82.770,301.904 84.094,302.932 84.941 C 305.138 86.762,305.194 87.123,303.559 88.986 C 301.588 91.231,301.208 91.080,294.000 85.182 C 287.423 79.800,287.659 79.890,285.902 82.100 C 282.468 86.421,282.242 85.736,288.867 91.053 C 294.525 95.595,294.319 95.297,293.050 97.123 C 291.059 99.990,291.097 99.999,285.359 95.375 C 279.264 90.464,279.430 90.495,276.834 93.757 C 274.055 97.250,274.089 97.445,278.000 100.528 C 279.821 101.964,282.654 104.279,283.227 104.800 C 283.590 105.130,284.543 105.903,285.344 106.517 C 287.150 107.903,287.143 108.175,285.250 110.365 L 283.724 112.131 281.962 110.542 C 280.993 109.668,279.729 108.604,279.152 108.177 C 277.893 107.243,271.726 102.258,270.600 101.264 C 270.160 100.875,269.035 99.952,268.100 99.212 C 265.979 97.533,265.835 98.123,269.628 92.978 C 287.459 68.795,285.582 70.717,288.840 73.300 M105.017 81.229 C 106.988 82.346,109.991 84.056,111.691 85.029 C 113.391 86.003,114.873 86.800,114.984 86.800 C 115.095 86.800,116.340 87.506,117.750 88.370 C 119.161 89.233,121.549 90.615,123.057 91.441 C 131.288 95.948,131.435 96.051,130.945 96.926 C 130.571 97.595,126.515 100.400,125.923 100.400 C 125.531 100.400,121.121 98.040,120.620 97.562 C 119.795 96.775,118.671 97.325,114.890 100.366 C 109.249 104.904,109.475 104.393,111.160 108.794 C 112.311 111.802,112.262 112.060,110.100 114.402 C 107.550 117.164,107.225 116.960,105.422 111.475 C 104.613 109.014,103.780 106.685,103.572 106.299 C 103.363 105.913,102.542 103.663,101.748 101.299 C 100.953 98.935,100.169 96.820,100.004 96.600 C 99.839 96.380,99.299 94.850,98.804 93.200 C 98.308 91.550,97.745 90.029,97.551 89.820 C 97.358 89.611,97.200 89.066,97.200 88.609 C 97.200 88.152,96.945 87.414,96.633 86.969 C 94.833 84.398,95.653 82.320,99.400 79.959 C 101.018 78.940,100.945 78.923,105.017 81.229 M207.579 84.837 C 219.068 86.306,224.984 87.337,227.114 88.242 C 227.836 88.549,228.647 88.800,228.917 88.800 C 229.396 88.800,236.105 90.941,239.538 92.190 C 242.313 93.199,250.406 96.981,252.718 98.348 C 253.882 99.036,254.934 99.600,255.056 99.600 C 255.177 99.600,255.838 100.005,256.523 100.500 C 257.209 100.995,258.614 101.850,259.644 102.400 C 260.675 102.950,262.032 103.802,262.659 104.293 C 263.287 104.784,265.353 106.314,267.250 107.693 C 273.472 112.215,279.387 117.821,286.499 125.937 C 288.536 128.262,294.441 136.434,295.438 138.309 C 295.982 139.332,296.556 140.266,296.713 140.385 C 297.004 140.603,298.623 143.460,299.383 145.097 C 299.613 145.590,299.935 145.995,300.100 145.997 C 300.265 145.999,300.400 146.174,300.400 146.387 C 300.400 146.599,301.276 148.624,302.346 150.887 C 303.416 153.149,304.617 155.900,305.015 157.000 C 305.412 158.100,305.858 159.180,306.006 159.400 C 306.153 159.620,306.677 161.150,307.171 162.800 C 307.664 164.450,308.233 166.213,308.434 166.719 C 308.635 167.224,308.800 168.043,308.800 168.539 C 308.800 169.034,308.990 169.630,309.223 169.863 C 309.871 170.511,311.827 180.418,312.409 186.000 C 312.581 187.650,312.939 190.980,313.204 193.400 C 314.245 202.916,312.223 220.400,308.808 231.400 C 308.603 232.060,308.180 233.590,307.867 234.800 C 307.353 236.787,307.078 237.565,305.961 240.200 C 305.775 240.640,305.246 241.990,304.786 243.200 C 304.327 244.410,303.406 246.570,302.740 248.000 C 302.075 249.430,301.328 251.050,301.081 251.600 C 300.685 252.485,297.799 257.597,296.792 259.200 C 296.585 259.530,295.785 260.839,295.015 262.109 C 294.244 263.379,293.431 264.639,293.206 264.909 C 292.981 265.179,291.623 266.982,290.187 268.917 C 283.752 277.585,273.423 287.877,266.583 292.437 C 265.492 293.164,264.510 293.876,264.400 294.020 C 263.198 295.588,244.561 306.000,242.956 306.000 C 242.789 306.000,241.921 306.333,241.026 306.740 C 238.554 307.865,236.445 308.642,233.800 309.402 C 232.480 309.781,230.860 310.317,230.200 310.593 C 228.935 311.123,225.518 311.927,220.200 312.948 C 218.440 313.286,215.470 313.875,213.600 314.257 C 208.638 315.270,187.362 315.270,182.400 314.257 C 180.530 313.875,177.560 313.285,175.800 312.946 C 169.870 311.804,167.007 311.146,165.600 310.600 C 164.830 310.302,162.400 309.483,160.200 308.780 C 158.000 308.078,155.845 307.255,155.411 306.951 C 154.977 306.648,154.347 306.400,154.011 306.399 C 152.965 306.397,139.727 299.647,136.991 297.720 C 136.336 297.258,134.630 296.122,133.200 295.195 C 116.305 284.241,99.439 263.770,92.011 245.200 C 91.527 243.990,90.963 242.681,90.757 242.291 C 88.726 238.449,85.621 227.184,84.391 219.200 C 84.171 217.770,83.797 216.060,83.560 215.400 C 82.287 211.859,82.718 189.453,84.218 181.200 C 84.558 179.330,85.000 176.804,85.201 175.586 C 85.944 171.072,88.447 162.806,90.586 157.800 C 90.869 157.140,91.420 155.790,91.812 154.800 C 92.470 153.139,96.016 145.783,96.826 144.400 C 99.722 139.453,102.729 134.641,103.699 133.400 C 103.871 133.180,104.674 132.100,105.483 131.000 C 111.900 122.276,121.745 112.550,130.002 106.781 C 132.033 105.361,133.915 103.991,134.184 103.735 C 134.453 103.479,135.287 102.933,136.037 102.521 C 136.787 102.110,138.210 101.253,139.200 100.617 C 141.868 98.903,152.225 93.799,155.112 92.775 C 156.494 92.285,157.720 91.730,157.836 91.542 C 157.952 91.354,158.476 91.200,159.000 91.200 C 159.524 91.200,160.055 91.034,160.181 90.831 C 160.306 90.628,160.992 90.343,161.705 90.198 C 163.778 89.776,167.337 88.745,168.120 88.341 C 169.488 87.633,179.674 85.823,185.791 85.201 C 188.204 84.955,190.259 84.675,190.356 84.577 C 190.721 84.212,204.292 84.417,207.579 84.837 M103.397 88.004 C 103.251 88.241,103.296 88.652,103.497 88.918 C 103.698 89.183,104.186 90.300,104.582 91.400 C 107.251 98.819,107.567 99.125,110.283 96.938 C 114.261 93.733,114.294 94.117,109.800 91.335 C 103.787 87.613,103.675 87.555,103.397 88.004 M184.200 94.228 C 183.100 94.534,181.672 94.788,181.026 94.792 C 180.381 94.797,178.851 95.053,177.626 95.362 C 176.402 95.670,174.410 96.126,173.200 96.375 C 169.444 97.146,169.023 97.250,168.200 97.616 C 166.737 98.267,162.636 99.600,162.097 99.600 C 161.805 99.600,160.359 100.150,158.883 100.821 C 157.407 101.493,155.840 102.184,155.400 102.357 C 153.957 102.924,146.614 106.590,146.000 107.049 C 145.670 107.296,144.350 108.074,143.068 108.779 C 140.977 109.927,134.104 114.606,133.600 115.223 C 133.490 115.358,133.107 115.633,132.748 115.834 C 132.186 116.150,129.577 118.397,125.018 122.494 C 122.923 124.376,123.327 124.411,145.862 124.302 L 166.723 124.200 181.555 109.400 C 189.712 101.260,196.389 94.375,196.393 94.100 C 196.403 93.388,186.860 93.488,184.200 94.228 M199.476 93.857 C 199.335 93.998,200.845 95.753,202.831 97.757 C 204.818 99.761,211.518 106.530,217.721 112.800 L 229.000 124.200 250.043 124.310 C 267.242 124.400,271.166 124.322,271.530 123.884 C 272.333 122.916,259.001 112.135,252.600 108.576 C 246.034 104.925,244.257 103.972,242.325 103.067 C 241.073 102.480,239.841 102.000,239.586 102.000 C 239.332 102.000,238.646 101.740,238.062 101.422 C 236.569 100.609,234.590 99.842,231.800 98.997 C 230.480 98.596,228.860 98.055,228.200 97.794 C 226.683 97.193,223.533 96.379,221.200 95.984 C 218.076 95.456,214.295 94.750,211.451 94.165 C 208.697 93.599,199.959 93.374,199.476 93.857 M318.431 102.300 C 320.666 105.105,323.058 108.087,323.747 108.927 C 328.531 114.756,328.706 119.053,324.318 122.997 C 320.915 126.057,316.751 126.712,312.967 124.783 C 310.565 123.558,310.000 123.858,310.000 126.356 C 310.000 126.956,309.736 127.796,309.413 128.224 C 309.090 128.651,308.820 129.292,308.813 129.648 C 308.796 130.492,306.460 135.885,305.502 137.291 C 304.507 138.751,303.693 138.227,301.988 135.030 L 300.693 132.600 302.482 128.200 C 305.547 120.660,305.810 118.541,303.997 115.996 C 303.052 114.669,302.350 114.496,301.597 115.404 C 301.321 115.736,299.814 116.995,298.248 118.201 C 296.682 119.408,294.840 120.850,294.155 121.407 L 292.910 122.418 291.250 120.709 C 288.252 117.621,287.968 118.104,297.200 110.617 C 299.730 108.566,302.340 106.410,303.000 105.826 C 303.660 105.243,304.708 104.368,305.329 103.883 C 305.949 103.397,308.019 101.701,309.929 100.114 C 314.302 96.479,313.664 96.315,318.431 102.300 M80.243 107.200 C 80.576 108.850,81.108 111.310,81.424 112.666 C 81.741 114.022,82.000 115.492,82.000 115.934 C 82.000 116.522,82.347 116.803,83.300 116.984 C 84.015 117.120,85.320 117.398,86.200 117.602 C 87.888 117.994,93.739 118.675,99.858 119.192 C 104.990 119.625,105.302 119.942,103.091 122.484 C 102.381 123.300,101.477 124.425,101.081 124.984 C 100.111 126.355,99.842 126.346,90.347 124.626 C 84.869 123.633,83.445 123.736,83.797 125.100 C 83.953 125.705,84.217 127.180,84.384 128.377 C 84.724 130.823,85.771 131.969,90.100 134.639 C 92.690 136.237,92.892 136.865,91.619 139.363 C 89.927 142.681,88.855 142.799,85.600 140.026 C 85.050 139.558,79.753 135.951,73.829 132.011 C 61.551 123.845,62.023 124.313,63.449 121.725 C 65.723 117.597,65.877 117.610,72.373 122.430 C 77.519 126.249,77.891 126.089,76.617 120.600 C 76.311 119.280,75.753 116.760,75.377 115.000 C 75.001 113.240,74.448 111.121,74.147 110.292 C 73.049 107.264,73.507 106.118,77.383 102.200 L 78.965 100.600 79.301 102.400 C 79.486 103.390,79.910 105.550,80.243 107.200 M184.250 119.162 L 170.528 132.846 152.501 132.812 C 142.585 132.794,133.737 132.897,132.837 133.041 L 131.200 133.302 131.200 152.225 C 131.200 162.722,131.037 171.560,130.834 172.074 C 130.633 172.583,124.598 178.850,117.424 186.000 C 107.010 196.378,104.401 199.185,104.490 199.916 C 104.561 200.507,109.280 205.511,117.800 214.029 L 131.000 227.227 131.111 246.770 L 131.222 266.312 132.111 266.551 C 132.600 266.682,141.460 266.793,151.800 266.797 L 170.600 266.805 183.972 280.203 C 192.009 288.255,197.642 293.600,198.092 293.600 C 198.544 293.600,204.086 288.297,212.095 280.200 L 225.350 266.800 244.501 266.800 C 256.938 266.800,263.924 266.655,264.426 266.386 C 265.175 265.985,265.200 265.346,265.192 246.486 L 265.184 227.000 278.592 213.697 C 285.966 206.381,292.000 200.158,292.000 199.868 C 292.000 199.579,285.880 193.216,278.400 185.729 L 264.800 172.115 264.800 152.907 C 264.800 137.048,264.704 133.618,264.247 133.239 C 263.854 132.913,259.775 132.786,250.147 132.800 C 242.696 132.811,234.101 132.815,231.046 132.810 L 225.492 132.800 212.349 119.652 C 205.121 112.420,198.928 106.273,198.589 105.991 C 198.058 105.550,196.043 107.401,184.250 119.162 M310.035 108.435 C 306.979 110.988,306.978 111.399,310.030 115.200 C 313.227 119.181,314.950 120.227,317.200 119.553 C 321.124 118.377,321.385 115.798,318.038 111.283 C 313.681 105.407,313.665 105.401,310.035 108.435 M120.160 127.451 C 119.082 128.578,117.210 130.724,116.000 132.219 C 114.790 133.714,113.530 135.232,113.200 135.593 C 112.409 136.458,108.694 141.873,107.844 143.400 C 107.476 144.060,106.831 145.140,106.410 145.800 C 105.988 146.460,105.229 147.810,104.722 148.800 C 104.215 149.790,103.692 150.690,103.560 150.800 C 103.427 150.910,103.001 151.720,102.613 152.600 C 102.226 153.480,101.317 155.460,100.593 157.000 C 99.870 158.540,98.964 160.790,98.581 162.000 C 98.198 163.210,97.730 164.371,97.542 164.580 C 97.354 164.789,97.200 165.290,97.200 165.694 C 97.200 166.098,96.957 166.827,96.661 167.314 C 96.365 167.801,95.801 169.640,95.409 171.400 C 95.017 173.160,94.449 175.397,94.148 176.371 C 93.847 177.345,93.600 178.662,93.600 179.298 C 93.600 179.933,93.424 180.781,93.209 181.183 C 92.713 182.110,91.515 194.559,91.678 197.095 L 91.800 199.000 107.300 183.578 L 122.800 168.155 122.772 147.578 C 122.739 123.832,122.845 124.643,120.160 127.451 M273.843 126.233 C 273.709 126.581,273.600 136.263,273.600 147.749 L 273.600 168.632 288.389 183.416 C 296.523 191.547,303.408 198.200,303.689 198.200 C 304.302 198.200,304.199 188.760,303.559 186.300 C 303.344 185.474,303.006 183.674,302.807 182.300 C 302.410 179.566,301.378 174.154,301.071 173.200 C 300.965 172.870,300.017 169.900,298.965 166.600 C 297.913 163.300,296.846 160.330,296.594 160.000 C 296.342 159.670,295.811 158.500,295.414 157.400 C 294.621 155.200,290.681 147.458,289.162 145.116 C 286.949 141.702,285.777 139.885,285.400 139.283 C 284.793 138.313,284.495 137.922,283.202 136.400 C 282.548 135.630,282.010 134.893,282.006 134.761 C 282.003 134.630,281.620 134.090,281.155 133.561 C 280.690 133.033,278.957 131.025,277.304 129.100 C 273.944 125.186,274.172 125.375,273.843 126.233 M336.082 134.265 C 343.978 136.848,347.496 151.837,341.226 156.182 C 339.172 157.605,338.665 157.478,337.708 155.300 C 336.335 152.175,336.331 151.934,337.610 150.040 C 338.817 148.254,339.245 145.522,338.400 145.000 C 338.180 144.864,338.000 144.433,338.000 144.043 C 338.000 141.489,333.812 139.360,332.005 140.995 C 331.078 141.834,330.863 145.883,331.639 147.874 C 333.561 152.806,332.068 159.990,328.577 162.615 C 320.866 168.412,310.736 160.592,310.670 148.791 C 310.633 142.359,316.029 136.671,318.383 140.660 C 319.841 143.133,319.869 144.222,318.508 145.614 C 315.719 148.466,315.970 153.191,319.075 156.296 C 322.977 160.198,326.673 157.399,325.539 151.400 C 324.453 145.651,324.797 139.682,326.337 137.543 C 328.727 134.224,332.291 133.025,336.082 134.265 M59.176 137.798 C 60.153 138.156,61.863 138.863,62.976 139.369 C 64.089 139.875,66.530 140.863,68.400 141.565 C 70.270 142.267,72.119 143.016,72.509 143.230 C 72.899 143.443,74.249 143.986,75.509 144.437 C 76.769 144.887,78.700 145.670,79.800 146.178 C 80.900 146.685,82.668 147.413,83.730 147.795 C 86.098 148.647,86.185 148.856,85.305 151.587 C 84.544 153.946,84.014 154.372,80.800 155.202 C 79.810 155.457,78.100 155.917,77.000 156.222 C 75.900 156.528,73.650 157.062,72.000 157.409 C 66.483 158.568,61.930 160.010,61.711 160.668 C 61.626 160.921,62.146 161.256,62.866 161.414 C 63.585 161.572,64.450 161.853,64.787 162.039 C 65.124 162.224,67.290 163.007,69.600 163.779 C 78.841 166.865,78.990 166.930,79.136 167.959 C 79.251 168.777,78.589 172.014,78.130 172.876 C 78.049 173.027,76.772 172.695,75.291 172.138 C 73.811 171.580,71.970 170.976,71.200 170.794 C 68.289 170.107,64.277 168.810,61.740 167.734 C 61.046 167.440,60.146 167.199,59.740 167.198 C 59.333 167.197,57.740 166.736,56.200 166.174 C 53.078 165.033,51.864 164.652,49.119 163.953 C 46.773 163.355,46.652 163.030,47.508 159.598 C 48.320 156.341,48.732 156.040,53.800 155.004 C 55.560 154.644,58.800 153.902,61.000 153.354 C 63.200 152.807,65.810 152.213,66.800 152.036 C 67.790 151.859,68.870 151.613,69.200 151.490 C 69.530 151.367,70.295 151.158,70.900 151.026 C 72.997 150.566,71.596 149.663,65.995 147.863 C 64.348 147.333,62.460 146.675,61.800 146.400 C 59.368 145.387,58.946 145.232,56.260 144.357 L 53.519 143.465 53.752 142.009 C 53.982 140.570,54.933 138.296,55.732 137.272 C 56.162 136.721,56.290 136.740,59.176 137.798 M239.192 138.992 C 240.099 139.957,240.118 140.125,239.877 145.155 C 239.596 151.022,239.490 150.776,242.869 152.049 C 246.981 153.599,248.910 153.984,249.986 153.470 C 250.927 153.021,251.072 152.665,251.807 148.992 C 252.280 146.630,254.639 145.779,256.493 147.302 L 257.586 148.200 257.161 152.400 C 256.485 159.081,256.265 175.538,256.743 183.600 C 256.985 187.670,257.460 197.210,257.799 204.800 C 259.182 235.733,259.608 243.590,260.243 249.885 C 260.695 254.362,258.073 257.375,255.349 255.509 C 253.486 254.232,253.192 252.746,252.793 242.600 C 252.594 237.540,252.253 231.150,252.036 228.400 C 251.818 225.650,251.529 216.449,251.394 207.954 C 251.145 192.332,250.864 189.396,249.562 188.768 C 246.752 187.413,245.519 187.141,241.440 186.974 C 234.487 186.689,234.557 186.750,233.977 180.400 C 233.787 178.310,233.444 174.519,233.215 171.977 C 232.418 163.103,233.069 141.899,234.191 140.167 C 234.715 139.358,236.959 138.028,237.830 138.009 C 238.067 138.004,238.680 138.446,239.192 138.992 M226.019 140.039 C 227.315 141.729,228.199 154.334,228.160 170.560 C 228.118 187.430,228.436 186.115,224.293 186.574 C 222.839 186.736,220.717 187.363,219.200 188.080 C 217.770 188.756,216.162 189.429,215.627 189.576 C 213.351 190.201,213.129 191.108,212.771 201.262 C 212.141 219.172,211.213 231.918,209.996 239.400 C 209.654 241.504,208.402 252.097,208.400 252.899 C 208.399 254.035,205.408 256.400,203.974 256.400 C 200.982 256.400,199.750 253.564,200.602 248.638 C 200.910 246.857,201.520 243.060,201.958 240.200 C 202.396 237.340,202.953 234.100,203.197 233.000 C 203.442 231.900,203.826 230.156,204.051 229.125 C 204.276 228.094,204.619 225.394,204.812 223.125 C 205.004 220.856,205.369 216.840,205.622 214.200 C 206.228 207.878,206.219 177.911,205.609 170.200 C 204.207 152.466,204.393 151.228,208.460 151.209 L 210.320 151.200 211.057 153.250 C 212.075 156.081,213.642 156.122,219.200 153.461 L 221.000 152.600 220.926 148.939 C 220.885 146.925,220.658 144.558,220.421 143.678 C 219.363 139.750,223.657 136.958,226.019 140.039 M167.742 141.381 L 168.800 142.362 168.800 151.565 C 168.800 163.431,168.701 163.327,178.671 161.976 C 182.852 161.409,182.935 161.282,182.604 155.962 C 182.258 150.395,182.519 149.075,184.136 148.215 C 187.114 146.630,189.596 149.486,189.604 154.508 C 189.607 155.879,189.877 157.884,190.204 158.964 C 191.014 161.634,190.953 164.118,190.034 165.833 C 188.710 168.303,188.566 168.340,180.110 168.380 C 169.155 168.432,169.200 168.414,169.200 172.697 C 169.200 176.630,168.944 176.522,179.056 176.858 C 194.008 177.354,192.902 175.673,193.621 199.000 C 194.124 215.319,193.584 248.937,192.786 251.038 C 192.064 252.936,188.497 254.508,186.877 253.641 C 185.878 253.107,185.000 249.390,185.387 247.331 C 186.833 239.619,187.351 192.952,186.028 189.473 L 185.608 188.370 183.746 189.409 C 181.615 190.599,177.195 193.550,176.600 194.180 C 174.701 196.191,175.057 197.200,177.668 197.200 C 180.840 197.200,182.079 200.226,180.411 203.900 L 179.639 205.600 174.842 205.600 C 169.256 205.600,168.800 205.880,168.800 209.315 C 168.800 212.711,168.939 212.799,174.314 212.806 C 179.545 212.813,179.525 212.806,180.500 214.914 C 182.300 218.806,181.220 219.909,175.268 220.258 C 168.328 220.665,169.001 218.625,168.995 239.266 C 168.990 257.578,168.811 260.126,167.442 261.269 C 166.169 262.333,165.350 262.155,163.445 260.399 C 160.555 257.735,160.165 256.125,160.732 249.200 C 160.992 246.010,161.204 238.589,161.203 232.709 L 161.200 222.018 160.188 221.355 C 159.363 220.815,158.620 220.742,156.183 220.963 C 150.930 221.439,148.949 220.576,148.387 217.567 C 147.784 214.333,149.371 213.430,156.330 213.051 C 160.688 212.814,161.200 212.512,161.200 210.177 C 161.200 205.897,160.736 205.614,153.714 205.606 C 147.214 205.599,147.195 205.589,147.206 202.126 C 147.216 199.095,148.284 198.461,153.457 198.417 C 155.666 198.399,156.339 197.781,155.620 196.437 C 155.161 195.580,152.132 192.800,151.657 192.800 C 151.470 192.800,150.832 192.351,150.239 191.801 C 148.551 190.236,144.774 188.266,144.325 188.715 C 142.761 190.279,143.236 232.146,144.967 245.400 C 146.066 253.815,143.569 258.138,139.653 254.601 C 137.402 252.567,137.249 251.217,137.115 232.200 C 136.805 188.114,137.095 179.811,138.990 178.570 C 139.922 177.959,140.303 177.918,152.116 177.151 C 161.043 176.572,162.060 175.943,161.331 171.453 C 161.015 169.503,160.680 169.437,151.586 169.552 C 141.681 169.676,139.780 168.474,141.168 162.961 C 141.406 162.018,141.600 159.676,141.600 157.758 C 141.600 149.879,145.049 145.387,148.470 148.809 C 149.582 149.920,149.658 150.170,149.415 151.909 C 148.615 157.630,148.699 160.718,149.668 161.237 C 150.974 161.935,157.947 162.211,159.698 161.634 L 161.115 161.166 161.280 156.483 C 161.371 153.907,161.297 150.270,161.116 148.400 C 160.454 141.585,163.957 137.874,167.742 141.381 M239.400 159.055 C 237.580 161.833,239.367 165.553,242.924 166.394 C 249.395 167.923,250.500 167.472,250.319 163.379 L 250.200 160.685 248.400 160.128 C 246.116 159.420,240.764 158.000,240.382 158.000 C 240.223 158.000,239.781 158.475,239.400 159.055 M217.600 159.859 C 211.920 161.738,210.972 163.016,212.648 166.532 C 213.374 168.053,212.988 168.054,219.100 166.512 C 222.228 165.723,222.598 165.276,222.531 162.373 C 222.452 158.913,221.667 158.513,217.600 159.859 M350.929 172.135 C 351.421 176.223,352.147 175.804,342.200 177.170 C 339.133 177.592,337.498 177.858,332.200 178.800 C 321.891 180.632,319.518 180.765,318.924 179.547 C 318.202 178.062,317.946 174.937,318.513 174.508 C 319.162 174.017,322.940 173.199,324.531 173.205 C 325.229 173.208,327.060 172.947,328.600 172.625 C 333.845 171.528,337.794 170.840,342.600 170.189 C 345.240 169.831,347.670 169.479,348.000 169.407 C 350.211 168.925,350.585 169.273,350.929 172.135 M239.781 171.476 C 239.274 171.983,239.198 172.637,239.398 174.755 C 239.904 180.101,240.353 180.660,244.981 181.696 C 249.334 182.671,250.388 182.028,250.388 178.400 C 250.388 174.469,249.842 174.002,242.307 171.478 C 240.580 170.899,240.358 170.899,239.781 171.476 M219.000 172.570 C 218.560 172.902,217.919 173.180,217.575 173.187 C 214.616 173.248,212.797 175.513,212.805 179.126 C 212.816 183.529,213.534 184.151,217.239 182.964 C 222.092 181.410,223.219 179.993,223.095 175.600 L 223.000 172.200 221.400 172.082 C 220.426 172.011,219.487 172.201,219.000 172.570 M76.681 182.073 C 75.869 185.938,76.215 185.483,73.561 186.176 C 68.992 187.369,69.342 186.883,69.037 192.470 C 68.889 195.181,68.668 198.144,68.546 199.053 C 68.298 200.891,67.827 200.517,73.700 203.141 C 74.985 203.715,75.600 204.231,75.600 204.736 C 75.600 205.147,75.716 206.589,75.857 207.941 L 76.114 210.400 75.052 210.400 C 74.467 210.400,73.677 210.224,73.295 210.009 C 72.357 209.480,64.795 206.000,64.585 206.000 C 64.434 206.000,62.068 204.920,56.161 202.154 C 55.040 201.630,53.974 201.200,53.793 201.200 C 53.611 201.200,53.179 200.961,52.831 200.668 C 52.484 200.375,51.338 199.818,50.285 199.429 C 49.232 199.040,47.252 198.128,45.885 197.402 L 43.400 196.081 43.282 193.198 C 43.148 189.935,43.800 188.400,45.320 188.400 C 45.816 188.400,46.577 188.163,47.011 187.874 C 47.445 187.585,48.970 187.027,50.400 186.634 C 51.830 186.241,54.440 185.421,56.200 184.811 C 57.960 184.202,60.570 183.378,62.000 182.981 C 63.430 182.584,64.780 182.138,65.000 181.990 C 65.366 181.744,67.685 181.013,73.600 179.280 C 74.810 178.926,75.971 178.493,76.180 178.318 C 77.158 177.500,77.346 178.911,76.681 182.073 M153.657 184.030 C 150.293 184.692,150.156 185.953,153.347 186.873 C 155.579 187.516,158.553 189.474,159.352 190.826 C 162.638 196.389,166.416 197.001,168.963 192.383 C 170.228 190.087,172.423 188.624,177.385 186.770 C 179.903 185.829,181.497 184.437,180.664 183.907 C 180.021 183.498,155.802 183.609,153.657 184.030 M353.030 198.400 C 353.064 212.529,353.180 212.000,350.029 212.000 C 347.174 212.000,347.200 212.050,347.200 206.612 L 347.200 202.489 334.034 202.195 C 319.111 201.861,320.410 202.223,320.412 198.400 C 320.413 195.269,319.615 195.443,334.073 195.420 L 347.000 195.400 347.441 190.800 C 347.684 188.270,347.909 186.146,347.941 186.081 C 347.974 186.015,349.125 186.015,350.500 186.081 L 353.000 186.200 353.030 198.400 M59.600 190.279 C 58.610 190.597,57.170 191.092,56.400 191.378 C 55.630 191.665,54.462 192.060,53.804 192.258 C 51.872 192.837,52.113 193.723,54.486 194.770 C 63.775 198.867,63.200 198.943,63.200 193.613 C 63.200 189.051,63.258 189.104,59.600 190.279 M245.300 192.703 C 246.468 193.739,245.947 197.600,244.638 197.600 C 243.463 197.600,242.800 198.808,242.800 200.952 C 242.800 203.240,243.525 204.668,244.498 204.294 C 245.543 203.894,246.800 205.456,246.800 207.154 C 246.800 208.915,245.827 210.257,244.402 210.461 C 243.663 210.567,243.353 210.936,243.111 212.000 C 242.705 213.790,243.547 250.421,244.034 252.119 C 245.508 257.258,242.606 261.034,238.824 258.900 C 236.889 257.808,236.814 256.981,236.496 233.243 C 236.241 214.151,236.117 211.044,235.600 210.784 C 235.270 210.618,234.256 210.175,233.346 209.801 C 231.524 209.051,230.860 207.347,231.615 205.362 C 232.016 204.306,232.230 204.190,234.450 203.822 C 237.068 203.389,237.118 198.246,234.509 197.757 C 232.123 197.309,231.346 193.653,233.394 192.507 C 234.589 191.839,244.509 192.002,245.300 192.703 M230.211 193.618 C 231.123 195.094,230.454 197.764,228.833 199.110 C 226.840 200.765,226.624 202.461,228.190 204.152 C 229.696 205.777,229.736 209.281,228.263 210.647 L 227.200 211.632 227.179 222.116 C 227.157 233.754,226.796 237.651,225.227 243.200 C 225.010 243.970,224.450 246.561,223.983 248.958 C 223.517 251.354,222.994 253.604,222.822 253.958 C 222.650 254.311,221.894 256.490,221.142 258.800 L 219.775 263.000 218.036 263.126 C 213.733 263.436,212.971 259.499,215.803 251.600 C 216.301 250.214,216.976 247.406,218.209 241.600 C 218.560 239.950,219.043 237.880,219.284 237.000 C 220.041 234.225,220.425 229.673,220.655 220.717 L 220.878 212.035 219.739 211.786 C 217.663 211.333,216.706 210.628,215.890 208.947 C 214.803 206.711,215.121 206.176,218.079 205.270 L 220.600 204.498 220.813 202.432 C 221.047 200.159,220.635 199.471,218.761 199.003 C 216.483 198.435,216.046 195.569,217.971 193.826 C 219.500 192.443,229.381 192.275,230.211 193.618 M91.605 203.300 C 91.612 206.380,92.664 216.682,93.208 219.000 C 93.467 220.100,93.921 221.990,94.217 223.200 C 94.514 224.410,95.072 226.750,95.458 228.400 C 95.844 230.050,96.394 231.755,96.680 232.189 C 96.966 232.623,97.200 233.300,97.200 233.694 C 97.200 234.088,97.364 234.723,97.565 235.105 C 97.765 235.487,98.240 236.700,98.620 237.800 C 100.158 242.251,105.480 253.083,106.965 254.784 C 107.261 255.123,107.823 256.030,108.214 256.800 C 108.604 257.570,109.402 258.830,109.986 259.600 C 110.570 260.370,111.929 262.170,113.007 263.600 C 117.840 270.015,122.134 274.531,122.489 273.572 C 122.671 273.078,122.771 263.341,122.710 251.933 L 122.600 231.191 107.589 216.195 C 99.333 207.948,92.358 201.200,92.089 201.200 C 91.765 201.200,91.602 201.909,91.605 203.300 M288.500 216.136 L 273.600 231.059 273.600 252.106 C 273.600 267.640,273.722 273.228,274.064 273.440 C 275.303 274.205,287.068 258.696,291.390 250.600 C 292.212 249.060,293.018 247.620,293.182 247.400 C 293.345 247.180,294.067 245.560,294.785 243.800 C 295.503 242.040,296.247 240.406,296.438 240.168 C 296.629 239.931,297.439 237.681,298.238 235.168 C 299.037 232.656,299.821 230.420,299.979 230.200 C 300.138 229.980,300.666 227.910,301.153 225.600 C 301.640 223.290,302.194 220.770,302.386 220.000 C 303.985 213.563,304.859 201.184,303.713 201.206 C 303.541 201.210,296.695 207.928,288.500 216.136 M76.330 216.437 C 76.618 216.897,76.952 218.472,77.073 219.937 L 77.292 222.600 69.007 230.675 C 61.770 237.728,59.481 240.502,61.924 239.258 C 62.296 239.069,64.400 238.601,66.600 238.218 C 68.800 237.835,71.500 237.266,72.600 236.953 C 73.700 236.640,75.410 236.215,76.400 236.009 C 77.390 235.803,78.694 235.516,79.299 235.371 C 80.299 235.131,80.469 235.264,81.190 236.854 C 82.831 240.469,82.283 241.258,77.600 242.027 C 76.390 242.226,74.950 242.556,74.400 242.761 C 73.850 242.965,71.960 243.432,70.200 243.797 C 63.694 245.147,61.352 245.671,59.400 246.214 C 51.014 248.548,50.355 248.488,49.463 245.310 C 48.477 241.797,48.546 241.559,51.300 238.984 C 57.335 233.341,65.600 225.134,65.600 224.783 C 65.600 224.040,63.129 224.448,52.000 227.026 C 44.599 228.740,44.859 228.836,44.228 224.147 C 43.947 222.056,44.371 221.687,47.660 221.166 C 49.057 220.945,50.740 220.603,51.400 220.407 C 52.962 219.941,57.838 218.981,65.761 217.580 C 67.059 217.351,68.443 216.991,68.835 216.781 C 69.227 216.572,70.144 216.387,70.874 216.372 C 71.603 216.356,72.560 216.189,73.000 216.000 C 74.434 215.384,75.783 215.561,76.330 216.437 M352.180 220.900 C 351.841 224.562,351.407 225.226,348.751 226.141 C 347.568 226.548,346.060 227.119,345.400 227.410 C 344.740 227.700,342.994 228.333,341.519 228.816 C 336.970 230.307,336.980 230.411,342.086 234.800 C 348.789 240.561,348.371 239.937,347.592 243.031 C 346.562 247.123,346.271 247.205,343.153 244.281 C 338.022 239.471,332.586 234.484,331.347 233.452 C 330.071 232.389,329.347 232.192,322.068 230.926 C 316.801 230.011,316.930 230.101,317.489 227.726 C 317.739 226.667,318.054 225.286,318.189 224.658 C 318.468 223.369,318.183 223.373,324.400 224.585 C 332.111 226.089,332.161 226.085,337.769 223.432 C 338.969 222.864,340.119 222.400,340.324 222.400 C 340.684 222.400,343.069 221.432,346.000 220.096 C 352.163 217.288,352.510 217.333,352.180 220.900 M124.400 275.971 C 124.400 276.341,125.423 277.533,126.674 278.621 C 127.925 279.710,129.279 280.919,129.683 281.309 C 131.300 282.869,139.634 288.802,143.405 291.078 C 147.988 293.844,157.950 298.709,160.400 299.377 C 160.950 299.527,161.760 299.792,162.200 299.965 C 166.172 301.530,171.660 303.072,176.540 303.997 C 177.607 304.199,179.047 304.539,179.740 304.751 C 180.433 304.964,182.170 305.235,183.600 305.353 C 185.030 305.471,188.413 305.783,191.119 306.045 C 194.860 306.408,196.149 306.411,196.503 306.057 C 197.290 305.270,167.862 276.072,165.780 275.575 C 162.655 274.828,124.400 275.195,124.400 275.971 M214.247 290.438 C 197.048 307.665,197.606 306.786,204.333 306.058 C 206.460 305.828,209.730 305.526,211.600 305.388 C 213.470 305.250,215.900 304.897,217.000 304.603 C 220.030 303.795,222.822 303.129,224.600 302.789 C 234.000 300.993,249.650 293.689,259.600 286.454 C 264.870 282.622,272.400 276.133,272.400 275.423 C 272.400 275.300,262.738 275.200,250.930 275.200 L 229.460 275.200 214.247 290.438 M92.840 284.074 C 98.672 286.106,97.169 294.800,90.986 294.800 C 83.754 294.800,83.805 284.229,91.040 283.636 C 91.282 283.616,92.092 283.813,92.840 284.074 M306.693 283.995 C 308.641 284.016,310.778 288.169,310.198 290.808 C 309.039 296.086,300.557 296.067,299.396 290.783 C 298.582 287.074,302.000 283.110,305.400 283.822 C 305.840 283.914,306.422 283.992,306.693 283.995 M146.000 315.073 C 148.815 316.026,151.600 317.271,151.600 317.578 C 151.600 317.975,148.624 326.325,147.885 328.000 C 147.546 328.770,146.253 332.100,145.013 335.400 C 141.267 345.369,141.605 345.094,136.400 342.426 C 135.555 341.993,135.448 340.656,136.134 339.115 C 136.456 338.392,137.044 336.810,137.442 335.600 C 137.840 334.390,138.304 333.206,138.474 332.969 C 138.776 332.549,141.032 326.593,141.493 325.000 C 141.620 324.560,141.966 323.845,142.262 323.411 C 143.143 322.119,142.936 320.921,141.783 320.631 C 140.328 320.266,140.214 319.544,141.194 316.924 C 142.117 314.457,142.641 313.872,143.600 314.237 C 143.930 314.362,145.010 314.739,146.000 315.073 M254.733 315.581 C 259.954 317.078,262.839 329.835,259.837 338.146 C 258.140 342.844,257.341 343.670,252.671 345.553 C 247.225 347.748,246.993 347.648,249.200 344.062 C 249.860 342.989,250.400 341.984,250.400 341.829 C 250.400 341.674,250.836 340.974,251.369 340.273 C 252.322 339.021,253.344 336.617,253.976 334.143 C 254.318 332.802,253.441 332.758,251.000 333.993 C 244.983 337.036,237.330 338.621,234.703 337.368 C 230.713 335.466,228.543 325.894,231.443 322.993 C 232.552 321.884,237.704 319.203,238.744 319.194 C 239.505 319.187,242.436 318.225,244.260 317.382 C 244.954 317.062,245.773 316.800,246.080 316.800 C 246.388 316.800,246.828 316.612,247.057 316.383 C 247.406 316.034,248.619 315.803,253.003 315.251 C 253.224 315.223,254.003 315.371,254.733 315.581 M249.800 321.860 C 248.353 322.163,244.612 323.322,244.000 323.658 C 243.670 323.839,242.342 324.330,241.048 324.749 C 237.596 325.867,237.046 326.461,237.353 328.738 C 237.791 331.972,239.924 332.440,245.000 330.415 C 245.440 330.239,246.610 329.773,247.600 329.378 C 251.313 327.897,253.600 326.801,253.594 326.505 C 253.566 325.073,251.544 321.509,250.838 321.646 C 250.707 321.672,250.240 321.768,249.800 321.860 M179.600 324.747 C 184.125 325.387,188.460 326.403,189.200 326.997 C 189.530 327.262,190.087 327.579,190.437 327.702 C 191.489 328.072,192.579 330.814,192.544 333.000 C 192.401 341.809,189.932 346.953,183.495 351.848 C 179.953 354.541,179.769 354.591,175.512 354.010 C 169.569 353.199,169.380 353.045,172.226 351.347 C 178.367 347.682,182.770 344.122,182.234 343.255 C 182.067 342.985,180.784 342.797,179.076 342.792 C 172.893 342.774,165.555 340.765,163.619 338.561 L 162.288 337.045 162.514 332.762 C 162.974 324.047,165.681 322.778,179.600 324.747 M215.683 330.000 C 216.283 334.040,217.132 342.296,217.781 350.400 C 218.060 353.889,217.891 354.073,214.366 354.142 L 211.432 354.200 211.135 352.400 C 210.972 351.410,210.640 348.350,210.397 345.600 C 210.154 342.850,209.740 338.800,209.478 336.600 L 209.000 332.600 207.502 332.476 C 205.864 332.340,205.795 332.212,205.473 328.707 C 205.229 326.040,207.029 325.189,212.600 325.336 L 215.000 325.400 215.683 330.000 M170.708 329.883 C 169.878 330.090,169.034 332.886,169.383 334.273 C 169.739 335.694,172.257 336.578,177.600 337.157 C 180.130 337.432,182.666 337.741,183.236 337.846 C 184.662 338.107,185.203 337.297,185.259 334.819 C 185.321 332.074,184.854 331.679,180.766 331.011 C 178.915 330.709,177.130 330.373,176.800 330.265 C 175.883 329.963,171.489 329.688,170.708 329.883 " stroke="none" fill="#fbfafb" fill-rule="evenodd"></path></g></svg>